<svg xmlns="http://www.w3.org/2000/svg" width="579" height="470" xmlns:xlink="http://www.w3.org/1999/xlink">
  <defs>
    <path id="a" d="M0 469.618453h579V0H0z"/>
  </defs>
  <g fill="none" fill-rule="evenodd">
    <path fill="#D3D8E5" d="M312 389.976541c0 12.419394-10.07325 22.488038-22.5 22.488038S267 402.395935 267 389.976541v-19.489634c0-12.420143 10.07325-22.488038 22.5-22.488038s22.5 10.067895 22.5 22.488038v19.489634zm-63.75 38.414067h82.5V323.827976h-82.5v104.562632z"/>
    <path stroke="#1A1C1E" stroke-width="3" d="M312 389.976541c0 12.419394-10.07325 22.488038-22.5 22.488038S267 402.395935 267 389.976541v-19.489634c0-12.420143 10.07325-22.488038 22.5-22.488038s22.5 10.067895 22.5 22.488038v19.489634zm-63.75-66.149315v104.563382h82.5V323.827226h-82.5z" stroke-linecap="round" stroke-linejoin="round"/>
    <path fill="#E6EBF4" d="M574.5 338.819477H4.5c-1.65675 0-3-1.342536-3-2.998405V4.4973078c0-1.6558692 1.34325-2.9984051 3-2.9984051h570c1.65675 0 3 1.3425359 3 2.9984051V335.821072c0 1.655869-1.34325 2.998405-3 2.998405"/>
    <path stroke="#1A1C1E" stroke-width="3" d="M543.261375 1.4989027h31.23825c1.6575 0 3 1.3425359 3 2.9984051V335.821072c0 1.655869-1.3425 2.998405-3 2.998405h-570c-1.65675 0-3-1.342536-3-2.998405V4.4973078c0-1.6558692 1.34325-2.9984051 3-2.9984051h465.33m31.3503 0h18.35925" stroke-linecap="round" stroke-linejoin="round"/>
    <path fill="#E6EBF4" d="M447 424.642376H132c-4.14225 0-7.5 3.355965-7.5 7.496013v28.484849c0 4.140047 3.35775 7.496012 7.5 7.496012h315c4.14225 0 7.5-3.355965 7.5-7.496012v-28.484849c0-4.140048-3.35775-7.496013-7.5-7.496013"/>
    <path stroke="#1A1C1E" stroke-width="3" d="M447 424.642376H132c-4.14225 0-7.5 3.355965-7.5 7.496013v28.484849c0 4.140047 3.35775 7.496012 7.5 7.496012h315c4.14225 0 7.5-3.355965 7.5-7.496012v-28.484849c0-4.140048-3.35775-7.496013-7.5-7.496013z" stroke-linecap="round" stroke-linejoin="round"/>
    <mask id="b" fill="#fff">
      <use xlink:href="#a"/>
    </mask>
    <path fill="#36393E" d="M195.91575 323.827751H561.75V16.4912281H195.91575" mask="url(#b)"/>
    <path fill="#2E3136" d="M65.07075 323.827751h130.845V16.7400957h-130.845" mask="url(#b)"/>
    <path fill="#555A61" d="M104.82585 99.2807911h-24.459c-1.386 0-2.5095-1.1229027-2.5095-2.5081659v-5.0155821c0-1.3852632 1.1235-2.5081659 2.5095-2.5081659h24.459c1.386 0 2.5095 1.1229027 2.5095 2.5081659v5.0155821c0 1.3852632-1.1235 2.5081659-2.5095 2.5081659m50.950425 0h-39.459c-1.386 0-2.5095-1.1229027-2.5095-2.5081659v-5.0155821c0-1.3852632 1.1235-2.5081659 2.5095-2.5081659h39.459c1.386 0 2.5095 1.1229027 2.5095 2.5081659v5.0155821c0 1.3852632-1.1235 2.5081659-2.5095 2.5081659" mask="url(#b)"/>
    <path fill="#2C2F36" d="M67.176 75.1722648h128.73975V52.6842265H67.176" mask="url(#b)"/>
    <path fill="#555A61" d="M140.600175 69.0968963h-38.709c-1.386 0-2.5095-1.1229027-2.5095-2.5081658v-5.0155822c0-1.3852631 1.1235-2.5081658 2.5095-2.5081658h38.709c1.386 0 2.5095 1.1229027 2.5095 2.5081658v5.0155822c0 1.3852631-1.1235 2.5081658-2.5095 2.5081658" mask="url(#b)"/>
    <path fill="#878B97" d="M66.09525 75.1722648H68.256V52.6842265h-2.16075" mask="url(#b)"/>
    <path fill="#282B30" d="M65.07075 323.827751h130.845v-43.072089h-130.845" mask="url(#b)"/>
    <path fill="#A3D49C" d="M102.70875 301.168429c0 6.925566-5.61675 12.53933-12.546 12.53933s-12.546-5.613764-12.546-12.53933 5.61675-12.53933 12.546-12.53933 12.546 5.613764 12.546 12.53933" mask="url(#b)"/>
    <path fill="#43B581" d="M108.7308 307.438169c0 3.462408-2.80875 6.269665-6.273 6.269665s-6.273-2.807257-6.273-6.269665 2.80875-6.269665 6.273-6.269665 6.273 2.807257 6.273 6.269665" mask="url(#b)"/>
    <path fill="#878B97" d="M157.669125 299.914496h-40.1475c-1.386 0-2.5095-1.122903-2.5095-2.508166v-2.507416c0-1.385263 1.1235-2.508166 2.5095-2.508166h40.1475c1.386 0 2.5095 1.122903 2.5095 2.508166v2.507416c0 1.385263-1.1235 2.508166-2.5095 2.508166" mask="url(#b)"/>
    <path fill="#555A61" d="M138.849975 309.81508h-21.3285c-1.386 0-2.5095-1.122903-2.5095-2.508166v-1.253333c0-1.385264 1.1235-2.508166 2.5095-2.508166h21.3285c1.386 0 2.5095 1.122902 2.5095 2.508166v1.253333c0 1.385263-1.1235 2.508166-2.5095 2.508166m41.0421-270.3276589h-99.522c-1.38825 0-2.5125-1.124402-2.5125-2.5111643v-7.5170016c0-1.3867624 1.12425-2.5111643 2.5125-2.5111643h99.522c1.3875 0 2.5125 1.1244019 2.5125 2.5111643v7.5170016c0 1.3867623-1.125 2.5111643-2.5125 2.5111643" mask="url(#b)"/>
    <path fill="#212326" d="M17.4735 323.827751h48.62175V16.7400957H17.4735" mask="url(#b)"/>
    <path fill="#2D3036" d="M56.3412 136.823522c0 8.310079-6.74025 15.047496-15.0555 15.047496-8.3145 0-15.0555-6.737417-15.0555-15.047496 0-8.31008 6.741-15.047496 15.0555-15.047496 8.31525 0 15.0555 6.737416 15.0555 15.047496M44.60535 24.2777113c0 1.8320255-1.4865 3.3177353-3.3195 3.3177353-1.83375 0-3.3195-1.4857098-3.3195-3.3177353 0-1.8320255 1.48575-3.3177352 3.3195-3.3177352 1.833 0 3.3195 1.4857097 3.3195 3.3177352m-11.618475 0c0 1.8320255-1.4865 3.3177353-3.3195 3.3177353-1.83375 0-3.3195-1.4857098-3.3195-3.3177353 0-1.8320255 1.48575-3.3177352 3.3195-3.3177352 1.833 0 3.3195 1.4857097 3.3195 3.3177352m23.237025 0c0 1.8320255-1.4865 3.3177353-3.3195 3.3177353-1.83375 0-3.3195-1.4857098-3.3195-3.3177353 0-1.8320255 1.48575-3.3177352 3.3195-3.3177352 1.833 0 3.3195 1.4857097 3.3195 3.3177352m.1173 150.1641007c0 8.31008-6.74025 15.047496-15.0555 15.047496-8.3145 0-15.0555-6.737416-15.0555-15.047496 0-8.31008 6.741-15.047496 15.0555-15.047496 8.31525 0 15.0555 6.737416 15.0555 15.047496m0-75.0446828c0 8.3100798-6.74025 15.0474958-15.0555 15.0474958-8.3145 0-15.0555-6.737416-15.0555-15.0474958s6.741-15.047496 15.0555-15.047496c8.31525 0 15.0555 6.7374162 15.0555 15.047496" mask="url(#b)"/>
    <path fill="#5AC8FA" d="M56.3412 212.060177c0 8.31008-6.74025 15.047496-15.0555 15.047496-8.3145 0-15.0555-6.737416-15.0555-15.047496 0-8.31008 6.741-15.047496 15.0555-15.047496 8.31525 0 15.0555 6.737416 15.0555 15.047496" mask="url(#b)"/>
    <path fill="#2D3036" d="M54.459225 76.8015981h-26.34675c-1.0395 0-1.88175-.8418022-1.88175-1.8807496s.84225-1.8807496 1.88175-1.8807496h26.34675c1.0395 0 1.88175.8418022 1.88175 1.8807496s-.84225 1.8807496-1.88175 1.8807496" mask="url(#b)"/>
    <path fill="#878B97" d="M261.30735 39.4874211H215.9421c-1.37475 0-2.48925-1.1139075-2.48925-2.4886763v-7.5627273c0-1.3740191 1.1145-2.4879266 2.48925-2.4879266h45.36525c1.37475 0 2.49 1.1139075 2.49 2.4879266v7.5627273c0 1.3747688-1.11525 2.4886763-2.49 2.4886763" mask="url(#b)"/>
    <path fill="#696F75" d="M239.55735 61.8129458H215.9421c-1.37475 0-2.48925-1.1139075-2.48925-2.4886763v-3.0651196c0-1.3740191 1.1145-2.4879266 2.48925-2.4879266h23.61525c1.37475 0 2.49 1.1139075 2.49 2.4879266v3.0651196c0 1.3747688-1.11525 2.4886763-2.49 2.4886763m99.250125 0h-23.61525c-1.37475 0-2.48925-1.1139075-2.48925-2.4886763v-3.0651196c0-1.3740191 1.1145-2.4879266 2.48925-2.4879266h23.61525c1.37475 0 2.49 1.1139075 2.49 2.4879266v3.0651196c0 1.3747688-1.11525 2.4886763-2.49 2.4886763M314.85465 39.4874211H291.9894c-1.37475 0-2.48925-1.1139075-2.48925-2.4886763v-7.5627273c0-1.3740191 1.1145-2.4879266 2.48925-2.4879266h22.86525c1.37475 0 2.49 1.1139075 2.49 2.4879266v7.5627273c0 1.3747688-1.11525 2.4886763-2.49 2.4886763m37.5 0H329.4894c-1.37475 0-2.48925-1.1139075-2.48925-2.4886763v-7.5627273c0-1.3740191 1.1145-2.4879266 2.48925-2.4879266h22.86525c1.37475 0 2.49 1.1139075 2.49 2.4879266v7.5627273c0 1.3747688-1.11525 2.4886763-2.49 2.4886763m37.500075 0h-22.86525c-1.37475 0-2.48925-1.1139075-2.48925-2.4886763v-7.5627273c0-1.3740191 1.1145-2.4879266 2.48925-2.4879266h22.86525c1.37475 0 2.49 1.1139075 2.49 2.4879266v7.5627273c0 1.3747688-1.11525 2.4886763-2.49 2.4886763m37.5 0h-22.86525c-1.37475 0-2.48925-1.1139075-2.48925-2.4886763v-7.5627273c0-1.3740191 1.1145-2.4879266 2.48925-2.4879266h22.86525c1.37475 0 2.49 1.1139075 2.49 2.4879266v7.5627273c0 1.3747688-1.11525 2.4886763-2.49 2.4886763" mask="url(#b)"/>
    <path fill="#878B97" d="M546.687675 39.4874211c-3.465 0-6.273-2.8072568-6.273-6.2696651s2.808-6.2696651 6.273-6.2696651c3.46425 0 6.273 2.8072568 6.273 6.2696651s-2.80875 6.2696651-6.273 6.2696651" mask="url(#b)"/>
    <path fill="#696F75" d="M552.908625 70.8275008h-348.081c-.621 0-1.125-.5037321-1.125-1.1244019 0-.6206699.504-1.1244019 1.125-1.1244019h348.081c.621 0 1.125.503732 1.125 1.1244019 0 .6206698-.504 1.1244019-1.125 1.1244019m-6.75 34.3253672h-331.581c-.621 0-1.125-.503732-1.125-1.124402 0-.62067.504-1.124402 1.125-1.124402h331.581c.621 0 1.125.503732 1.125 1.124402 0 .62067-.504 1.124402-1.125 1.124402m-269.72265-13.2896814h-38.709c-1.386 0-2.5095-1.1229027-2.5095-2.5081659v-5.0155821c0-1.3852632 1.1235-2.5081659 2.5095-2.5081659h38.709c1.386 0 2.5095 1.1229027 2.5095 2.5081659v5.0155821c0 1.3852632-1.1235 2.5081659-2.5095 2.5081659m79.0326 0h-23.709c-1.386 0-2.5095-1.1229027-2.5095-2.5081659v-5.0155821c0-1.3852632 1.1235-2.5081659 2.5095-2.5081659h23.709c1.386 0 2.5095 1.1229027 2.5095 2.5081659v5.0155821c0 1.3852632-1.1235 2.5081659-2.5095 2.5081659m63.22785 0h-53.709c-1.386 0-2.5095-1.1229027-2.5095-2.5081659v-5.0155821c0-1.3852632 1.1235-2.5081659 2.5095-2.5081659h53.709c1.386 0 2.5095 1.1229027 2.5095 2.5081659v5.0155821c0 1.3852632-1.1235 2.5081659-2.5095 2.5081659m18.227775 0h-8.709c-1.386 0-2.5095-1.1229027-2.5095-2.5081659v-5.0155821c0-1.3852632 1.1235-2.5081659 2.5095-2.5081659h8.709c1.386 0 2.5095 1.1229027 2.5095 2.5081659v5.0155821c0 1.3852632-1.1235 2.5081659-2.5095 2.5081659" mask="url(#b)"/>
    <path fill="#E6EBF4" d="M227.7027 87.0004482c0 3.9331579-3.18975 7.1212121-7.125 7.1212121s-7.125-3.1880542-7.125-7.1212121c0-3.9331579 3.18975-7.1212122 7.125-7.1212122s7.125 3.1880543 7.125 7.1212122" mask="url(#b)"/>
    <path fill="#43B581" d="M322.077825 87.0004482c0 1.6558692-1.34325 2.9984051-3 2.9984051s-3-1.3425359-3-2.9984051c0-1.6558693 1.34325-2.9984051 3-2.9984051s3 1.3425358 3 2.9984051" mask="url(#b)"/>
    <path fill="#696F75" d="M546.158625 140.384128h-331.581c-.621 0-1.125-.503732-1.125-1.124402 0-.62067.504-1.124402 1.125-1.124402h331.581c.621 0 1.125.503732 1.125 1.124402 0 .62067-.504 1.124402-1.125 1.124402m-257.72265-13.289681h-50.709c-1.386 0-2.5095-1.122903-2.5095-2.508166v-5.015582c0-1.385264 1.1235-2.508166 2.5095-2.508166h50.709c1.386 0 2.5095 1.122902 2.5095 2.508166v5.015582c0 1.385263-1.1235 2.508166-2.5095 2.508166m67.0326 0h-23.709c-1.386 0-2.5095-1.122903-2.5095-2.508166v-5.015582c0-1.385264 1.1235-2.508166 2.5095-2.508166h23.709c1.386 0 2.5095 1.122902 2.5095 2.508166v5.015582c0 1.385263-1.1235 2.508166-2.5095 2.508166m40.72785 0h-31.209c-1.386 0-2.5095-1.122903-2.5095-2.508166v-5.015582c0-1.385264 1.1235-2.508166 2.5095-2.508166h31.209c1.386 0 2.5095 1.122902 2.5095 2.508166v5.015582c0 1.385263-1.1235 2.508166-2.5095 2.508166m33.227775 0h-23.709c-1.386 0-2.5095-1.122903-2.5095-2.508166v-5.015582c0-1.385264 1.1235-2.508166 2.5095-2.508166h23.709c1.386 0 2.5095 1.122902 2.5095 2.508166v5.015582c0 1.385263-1.1235 2.508166-2.5095 2.508166" mask="url(#b)"/>
    <path fill="#F6989D" d="M227.7027 122.231708c0 3.933158-3.18975 7.121212-7.125 7.121212s-7.125-3.188054-7.125-7.121212c0-3.933158 3.18975-7.121212 7.125-7.121212s7.125 3.188054 7.125 7.121212" mask="url(#b)"/>
    <path fill="#43B581" d="M322.077825 122.231708c0 1.655869-1.34325 2.998405-3 2.998405s-3-1.342536-3-2.998405 1.34325-2.998405 3-2.998405 3 1.342536 3 2.998405" mask="url(#b)"/>
    <path fill="#696F75" d="M546.158625 175.615388h-331.581c-.621 0-1.125-.503732-1.125-1.124402 0-.62067.504-1.124402 1.125-1.124402h331.581c.621 0 1.125.503732 1.125 1.124402 0 .62067-.504 1.124402-1.125 1.124402m-292.22265-13.289681h-16.209c-1.386 0-2.5095-1.122903-2.5095-2.508166v-5.015582c0-1.385264 1.1235-2.508166 2.5095-2.508166h16.209c1.386 0 2.5095 1.122902 2.5095 2.508166v5.015582c0 1.385263-1.1235 2.508166-2.5095 2.508166m101.5326 0h-23.709c-1.386 0-2.5095-1.122903-2.5095-2.508166v-5.015582c0-1.385264 1.1235-2.508166 2.5095-2.508166h23.709c1.386 0 2.5095 1.122902 2.5095 2.508166v5.015582c0 1.385263-1.1235 2.508166-2.5095 2.508166m63.22785 0h-53.709c-1.386 0-2.5095-1.122903-2.5095-2.508166v-5.015582c0-1.385264 1.1235-2.508166 2.5095-2.508166h53.709c1.386 0 2.5095 1.122902 2.5095 2.508166v5.015582c0 1.385263-1.1235 2.508166-2.5095 2.508166m18.227775 0h-8.709c-1.386 0-2.5095-1.122903-2.5095-2.508166v-5.015582c0-1.385264 1.1235-2.508166 2.5095-2.508166h8.709c1.386 0 2.5095 1.122902 2.5095 2.508166v5.015582c0 1.385263-1.1235 2.508166-2.5095 2.508166" mask="url(#b)"/>
    <path fill="#FAA61A" d="M227.7027 157.462968c0 3.933158-3.18975 7.121212-7.125 7.121212s-7.125-3.188054-7.125-7.121212c0-3.933158 3.18975-7.121212 7.125-7.121212s7.125 3.188054 7.125 7.121212" mask="url(#b)"/>
    <path fill="#43B581" d="M322.077825 157.462968c0 1.655869-1.34325 2.998405-3 2.998405s-3-1.342536-3-2.998405 1.34325-2.998405 3-2.998405 3 1.342536 3 2.998405" mask="url(#b)"/>
    <path fill="#696F75" d="M546.158625 210.846648h-331.581c-.621 0-1.125-.503733-1.125-1.124402 0-.62067.504-1.124402 1.125-1.124402h331.581c.621 0 1.125.503732 1.125 1.124402 0 .620669-.504 1.124402-1.125 1.124402m-284.72265-13.289681h-23.709c-1.386 0-2.5095-1.122903-2.5095-2.508166v-5.015582c0-1.385264 1.1235-2.508166 2.5095-2.508166h23.709c1.386 0 2.5095 1.122902 2.5095 2.508166v5.015582c0 1.385263-1.1235 2.508166-2.5095 2.508166m94.0326 0h-23.709c-1.386 0-2.5095-1.122903-2.5095-2.508166v-5.015582c0-1.385264 1.1235-2.508166 2.5095-2.508166h23.709c1.386 0 2.5095 1.122902 2.5095 2.508166v5.015582c0 1.385263-1.1235 2.508166-2.5095 2.508166" mask="url(#b)"/>
    <path fill="#FAA61A" d="M227.7027 192.694228c0 3.933158-3.18975 7.121212-7.125 7.121212s-7.125-3.188054-7.125-7.121212c0-3.933158 3.18975-7.121212 7.125-7.121212s7.125 3.188054 7.125 7.121212" mask="url(#b)"/>
    <path fill="#FC0" d="M322.077825 192.694228c0 1.655869-1.34325 2.998405-3 2.998405s-3-1.342536-3-2.998405 1.34325-2.998405 3-2.998405 3 1.342536 3 2.998405" mask="url(#b)"/>
    <path fill="#696F75" d="M546.158625 246.077907h-331.581c-.621 0-1.125-.503732-1.125-1.124401 0-.62067.504-1.124402 1.125-1.124402h331.581c.621 0 1.125.503732 1.125 1.124402 0 .620669-.504 1.124401-1.125 1.124401m-256.22265-13.289681h-52.209c-1.386 0-2.5095-1.122902-2.5095-2.508165v-5.015583c0-1.385263 1.1235-2.508165 2.5095-2.508165h52.209c1.386 0 2.5095 1.122902 2.5095 2.508165v5.015583c0 1.385263-1.1235 2.508165-2.5095 2.508165m65.5326 0h-23.709c-1.386 0-2.5095-1.122902-2.5095-2.508165v-5.015583c0-1.385263 1.1235-2.508165 2.5095-2.508165h23.709c1.386 0 2.5095 1.122902 2.5095 2.508165v5.015583c0 1.385263-1.1235 2.508165-2.5095 2.508165m63.22785 0h-53.709c-1.386 0-2.5095-1.122902-2.5095-2.508165v-5.015583c0-1.385263 1.1235-2.508165 2.5095-2.508165h53.709c1.386 0 2.5095 1.122902 2.5095 2.508165v5.015583c0 1.385263-1.1235 2.508165-2.5095 2.508165m18.227775 0h-8.709c-1.386 0-2.5095-1.122902-2.5095-2.508165v-5.015583c0-1.385263 1.1235-2.508165 2.5095-2.508165h8.709c1.386 0 2.5095 1.122902 2.5095 2.508165v5.015583c0 1.385263-1.1235 2.508165-2.5095 2.508165" mask="url(#b)"/>
    <path fill="#E6EBF4" d="M227.7027 227.925488c0 3.933158-3.18975 7.121212-7.125 7.121212s-7.125-3.188054-7.125-7.121212c0-3.933158 3.18975-7.121212 7.125-7.121212s7.125 3.188054 7.125 7.121212" mask="url(#b)"/>
    <path fill="#43B581" d="M322.077825 227.925488c0 1.655869-1.34325 2.998405-3 2.998405s-3-1.342536-3-2.998405 1.34325-2.998405 3-2.998405 3 1.342536 3 2.998405" mask="url(#b)"/>
    <path fill="#696F75" d="M546.158625 281.309167h-331.581c-.621 0-1.125-.503732-1.125-1.124401 0-.62067.504-1.124402 1.125-1.124402h331.581c.621 0 1.125.503732 1.125 1.124402 0 .620669-.504 1.124401-1.125 1.124401m-274.22265-13.289681h-34.209c-1.386 0-2.5095-1.122902-2.5095-2.508165v-5.015583c0-1.385263 1.1235-2.508165 2.5095-2.508165h34.209c1.386 0 2.5095 1.122902 2.5095 2.508165v5.015583c0 1.385263-1.1235 2.508165-2.5095 2.508165m83.5326 0h-23.709c-1.386 0-2.5095-1.122902-2.5095-2.508165v-5.015583c0-1.385263 1.1235-2.508165 2.5095-2.508165h23.709c1.386 0 2.5095 1.122902 2.5095 2.508165v5.015583c0 1.385263-1.1235 2.508165-2.5095 2.508165" mask="url(#b)"/>
    <path fill="#FAA61A" d="M227.7027 263.156748c0 3.933158-3.18975 7.121212-7.125 7.121212s-7.125-3.188054-7.125-7.121212c0-3.933158 3.18975-7.121212 7.125-7.121212s7.125 3.188054 7.125 7.121212" mask="url(#b)"/>
    <path fill="#696F75" d="M322.077825 263.156748c0 1.655869-1.34325 2.998405-3 2.998405s-3-1.342536-3-2.998405 1.34325-2.998405 3-2.998405 3 1.342536 3 2.998405m224.0808 51.134876h-331.581c-.621 0-1.125-.503732-1.125-1.124402 0-.62067.504-1.124402 1.125-1.124402h331.581c.621 0 1.125.503732 1.125 1.124402 0 .62067-.504 1.124402-1.125 1.124402m-262.97265-13.289681h-45.459c-1.386 0-2.5095-1.122903-2.5095-2.508166v-5.015582c0-1.385264 1.1235-2.508166 2.5095-2.508166h45.459c1.386 0 2.5095 1.122902 2.5095 2.508166v5.015582c0 1.385263-1.1235 2.508166-2.5095 2.508166m72.2826 0h-23.709c-1.386 0-2.5095-1.122903-2.5095-2.508166v-5.015582c0-1.385264 1.1235-2.508166 2.5095-2.508166h23.709c1.386 0 2.5095 1.122902 2.5095 2.508166v5.015582c0 1.385263-1.1235 2.508166-2.5095 2.508166" mask="url(#b)"/>
    <path fill="#5AC8FA" d="M227.7027 296.139204c0 3.933158-3.18975 7.121212-7.125 7.121212s-7.125-3.188054-7.125-7.121212c0-3.933158 3.18975-7.121212 7.125-7.121212s7.125 3.188054 7.125 7.121212" mask="url(#b)"/>
    <path fill="#FC0" d="M322.077825 296.139204c0 1.655869-1.34325 2.998405-3 2.998405s-3-1.342536-3-2.998405 1.34325-2.998405 3-2.998405 3 1.342536 3 2.998405" mask="url(#b)"/>
    <path fill="#555A61" d="M91.8669 64.0810893c0 3.9331579-3.18975 7.1212121-7.125 7.1212121s-7.125-3.1880542-7.125-7.1212121c0-3.9331579 3.18975-7.1212121 7.125-7.1212121s7.125 3.1880542 7.125 7.1212121" mask="url(#b)"/>
    <path fill="#878B97" d="M17.473275 41.2316683h2.5095c1.38525 0 2.50875 1.1229027 2.50875 2.5081658v13.7934131c0 1.3845136-1.1235 2.5074163-2.50875 2.5074163h-2.5095V41.2316683z" mask="url(#b)"/>
    <path fill="#738BD7" d="M48.81345 65.6835869h-15.0555c-4.15725 0-7.52775-3.3687081-7.52775-7.523748v-15.047496c0-4.1550399 3.3705-7.523748 7.52775-7.523748h15.0555c4.15725 0 7.52775 3.3687081 7.52775 7.523748v15.047496c0 4.1550399-3.3705 7.523748-7.52775 7.523748" mask="url(#b)"/>
    <path fill="#555A61" d="M140.600175 116.308884h-38.709c-1.386 0-2.5095-1.122903-2.5095-2.508166v-5.015582c0-1.385264 1.1235-2.508166 2.5095-2.508166h38.709c1.386 0 2.5095 1.122902 2.5095 2.508166v5.015582c0 1.385263-1.1235 2.508166-2.5095 2.508166" mask="url(#b)"/>
    <path fill="#FAA61A" d="M91.8669 111.44607c0 3.933158-3.18975 7.121212-7.125 7.121212s-7.125-3.188054-7.125-7.121212c0-3.933158 3.18975-7.121212 7.125-7.121212s7.125 3.188054 7.125 7.121212" mask="url(#b)"/>
    <path fill="#43B581" d="M91.8669 116.318478c0 1.24209-1.00725 2.248804-2.25 2.248804s-2.25-1.006714-2.25-2.248804c0-1.242089 1.00725-2.248803 2.25-2.248803s2.25 1.006714 2.25 2.248803" mask="url(#b)"/>
    <path fill="#555A61" d="M140.600175 137.297719h-38.709c-1.386 0-2.5095-1.122902-2.5095-2.508166v-5.015582c0-1.385263 1.1235-2.508166 2.5095-2.508166h38.709c1.386 0 2.5095 1.122903 2.5095 2.508166v5.015582c0 1.385264-1.1235 2.508166-2.5095 2.508166" mask="url(#b)"/>
    <path fill="#5AC8FA" d="M91.8669 132.434906c0 3.933158-3.18975 7.121212-7.125 7.121212s-7.125-3.188054-7.125-7.121212c0-3.933158 3.18975-7.121212 7.125-7.121212s7.125 3.188054 7.125 7.121212" mask="url(#b)"/>
    <path fill="#43B581" d="M91.8669 137.307314c0 1.24209-1.00725 2.248804-2.25 2.248804s-2.25-1.006714-2.25-2.248804c0-1.242089 1.00725-2.248804 2.25-2.248804s2.25 1.006715 2.25 2.248804" mask="url(#b)"/>
    <path stroke="#1A1C1E" stroke-width="3" d="M17.241 323.827751H561.75V16.4912281H17.241z" stroke-linecap="round" stroke-linejoin="round" mask="url(#b)"/>
  </g>
</svg>