<svg xmlns="http://www.w3.org/2000/svg" width="92" height="82">
  <g fill="none" fill-rule="evenodd">
    <path fill="#E6EBF4" d="M37.7113034 23.88575c1.3252773-1.23975 1.5773193-3.29925.5138067-4.836C31.5867571 9.45125 24.3687824 4.178 16.7731185 3.377 8.3876731 2.4935 2.83452185 7.54925 2.50395042 7.859c-.0037395.003-.0067311.006-.0082269.0075-1.4920588 1.40775-1.56310923 3.76125-.1600504 5.25675 1.39632772 1.48875 3.7260336 1.5675 5.21958822.18225.185479-.1665 3.53157986-3.1005 8.56194956-2.51775 5.2390336.6075 10.776479 4.92975 16.0132689 12.501 1.1667227 1.6875 3.4769832 2.10675 5.1605042.93675.1503278-.10425.2901849-.21825.4203194-.33975"/>
    <path stroke="#1A1C1E" stroke-width="3" d="M16.1174353 10.78745c5.2390336.6075 10.776479 4.92975 16.0132689 12.501 1.1667227 1.68825 3.4769832 2.1075 5.1605042.93675.1503277-.10425.2901849-.21825.4203193-.33975 1.3252773-1.239 1.5773194-3.2985.5138068-4.836-6.638353-9.5985-13.8563278-14.87175-21.4527395-15.672C8.38789748 2.4932 2.83474622 7.54895 2.5034269 7.8587c-.0029916.00375-.0059832.006-.007479.0075" stroke-linecap="round" stroke-linejoin="round"/>
    <path fill="#99A6AD" d="M27.7290933 41.134625l25.312647-23.6775-16.8808319-14.8425c-.9550672-.83925-2.388042-.81675-3.3169328.05175l-18.4259916 17.235c-.9281428.8685-1.0500504 2.301-.2812101 3.31425l13.5923194 17.919z"/>
    <path stroke="#1A1C1E" stroke-width="3" d="M27.7290933 41.134625l25.312647-23.6775-16.8808319-14.8425c-.9550672-.83925-2.388042-.81675-3.3169328.05175l-18.4259916 17.235c-.9281428.8685-1.0500504 2.301-.2812101 3.31425l13.5923194 17.919z" stroke-linecap="round" stroke-linejoin="round"/>
    <path fill="#99A6AD" d="M25.7329504 68.068625c13.9715042 15.02025 37.439832 15.8385 52.4180084 1.8285 14.9781765-14.01075 15.7941345-37.545 1.8226303-52.56525-13.9707563-15.02025-37.4390841-15.8385-52.4172605-1.8285-14.9781765 14.01075-15.7948824 37.545-1.8233782 52.56525"/>
    <path stroke="#1A1C1E" stroke-width="3" d="M79.973963 17.33195C66.0024588 2.3117 42.5341311 1.49345 27.5559546 15.50345c-14.9781764 14.01075-15.7941344 37.545-1.8226302 52.56525 13.9707563 15.02025 37.439084 15.8385 52.4172605 1.8285 11.8923445-11.124 14.8570168-28.251 8.5821428-42.35325" stroke-linecap="round" stroke-linejoin="round"/>
    <path fill="#E6EBF4" d="M25.9909008 47.350025c-.0837647-.20025-.1443445-.4065-.222126-.609h-.0007479c-.0007479-.00225-.0007479-.003-.0007479-.003-.912437-2.3655-1.4262437-4.8345-1.2086051-7.3905.2236219-2.6205.8698068-5.85 2.892874-7.6845 1.9273361-1.7475 4.3924118.21375 3.9915378 2.48625-.3432857 1.94925-1.3843613 3.6315-1.5384286 5.66025-.1525714 2.013.0942353 3.918.7396723 5.82825.9610504 2.84775-3.1464118 3.93525-4.5898571 1.6785-.0209412.01125-.0418824.0225-.0635715.03375"/>
  </g>
</svg>