<svg xmlns="http://www.w3.org/2000/svg" width="160" height="110">
  <g fill="none" fill-rule="evenodd">
    <path fill="#E6EBF4" d="M124.47335 4H34.8686C18.37235 4 4.99985 17.4050365 4.99985 33.9406715v52.8630584c0 10.7480876 8.6925 19.4617371 19.4145 19.4617371h.04725c6.50175 0 12.5745-3.2561531 16.1835-8.6775619l11.92725-17.9182409c1.39125-2.090073 3.732-3.3448686 6.2385-3.3448686h41.73675c2.50725 0 4.84875 1.2562993 6.24 3.3478759l11.91 17.9077154c3.60825 5.4259197 9.68325 8.6850801 16.188 8.6850801h.042c10.722 0 19.41375-8.7136495 19.41375-19.4617371V33.9406715C154.34135 17.4050365 140.96885 4 124.47335 4"/>
    <path stroke="#1A1C1E" stroke-width="3" d="M5 86.8038051c0 10.7480876 8.6925 19.4617369 19.4145 19.4617369h.0465c6.5025 0 12.5745-3.2561529 16.18425-8.6775617L52.5725 79.6697394c1.39125-2.090073 3.732-3.3456204 6.2385-3.3456204h41.736c2.508 0 4.8495 1.2562992 6.24075 3.3478759l11.91 17.9084671c3.60825 5.4259198 9.68325 8.68508 16.188 8.68508h.04125c10.72275 0 19.4145-8.7136493 19.4145-19.4617369V33.9407467c0-16.535635-13.3725-29.94067152-29.868-29.94067152h-17.145M88.1441 4H34.8686C18.37235 4 4.99985 17.4050365 4.99985 33.9406715v27.4867154" stroke-linecap="round" stroke-linejoin="round"/>
    <path fill="#99A6AD" d="M52.25675 33.3353022H45.3005c-.828 0-1.5-.6728832-1.5-1.5036496v-6.9731752c0-.8300146-.67125-1.5036497-1.5-1.5036497H30.84425c-.828 0-1.5.6736351-1.5 1.5036497v6.9731752c0 .8307664-.67125 1.5036496-1.5 1.5036496h-6.9555c-.82875 0-1.5.6728832-1.5 1.5036496v11.4841241c0 .8300146.67125 1.5036496 1.5 1.5036496h6.9555c.82875 0 1.5.6728833 1.5 1.5036497v6.9731752c0 .8300146.672 1.5036496 1.5 1.5036496H42.3005c.82875 0 1.5-.673635 1.5-1.5036496v-6.9731752c0-.8307664.672-1.5036497 1.5-1.5036497h6.95625c.82875 0 1.5-.673635 1.5-1.5036496V34.8389518c0-.8307664-.67125-1.5036496-1.5-1.5036496"/>
    <path stroke="#1A1C1E" stroke-width="3" d="M52.25675 33.3353022H45.3005c-.828 0-1.5-.6728832-1.5-1.5036496v-6.9731752c0-.8300146-.67125-1.5036497-1.5-1.5036497H30.84425c-.828 0-1.5.6736351-1.5 1.5036497v6.9731752c0 .8307664-.67125 1.5036496-1.5 1.5036496h-6.9555c-.82875 0-1.5.6728832-1.5 1.5036496v11.4841241c0 .8300146.67125 1.5036496 1.5 1.5036496h6.9555c.82875 0 1.5.6728833 1.5 1.5036497v6.9731752c0 .8300146.672 1.5036496 1.5 1.5036496H42.3005c.82875 0 1.5-.673635 1.5-1.5036496v-6.9731752c0-.8307664.672-1.5036497 1.5-1.5036497h6.95625c.82875 0 1.5-.673635 1.5-1.5036496V34.8389518c0-.8307664-.67125-1.5036496-1.5-1.5036496z" stroke-linecap="round" stroke-linejoin="round"/>
    <path fill="#738BD7" d="M126.4532 54.1137854c0 3.1140584-2.5185 5.6386861-5.625 5.6386861s-5.625-2.5246277-5.625-5.6386861c0-3.1140584 2.5185-5.6386861 5.625-5.6386861s5.625 2.5246277 5.625 5.6386861"/>
    <path stroke="#1A1C1E" stroke-width="3" d="M126.4532 54.1137854c0 3.1140584-2.5185 5.6386861-5.625 5.6386861s-5.625-2.5246277-5.625-5.6386861c0-3.1140584 2.5185-5.6386861 5.625-5.6386861s5.625 2.5246277 5.625 5.6386861z" stroke-linecap="round" stroke-linejoin="round"/>
    <path fill="#F6989D" d="M107.3282 46.2196248c-3.1065 0-5.625-2.5246277-5.625-5.6386861 0-3.1140584 2.5185-5.6386861 5.625-5.6386861s5.625 2.5246277 5.625 5.6386861c0 3.1140584-2.5185 5.6386861-5.625 5.6386861"/>
    <path fill="#FAA61A" d="M126.4532 27.048092c0 3.1140584-2.5185 5.6386861-5.625 5.6386861s-5.625-2.5246277-5.625-5.6386861c0-3.1140584 2.5185-5.6386862 5.625-5.6386862s5.625 2.5246278 5.625 5.6386862"/>
    <path stroke="#1A1C1E" stroke-width="3" d="M126.4532 27.048092c0 3.1140584-2.5185 5.6386861-5.625 5.6386861s-5.625-2.5246277-5.625-5.6386861c0-3.1140584 2.5185-5.6386862 5.625-5.6386862s5.625 2.5246278 5.625 5.6386862zm-19.125 19.1715328c-3.1065 0-5.625-2.5246277-5.625-5.6386861 0-3.1140584 2.5185-5.6386861 5.625-5.6386861s5.625 2.5246277 5.625 5.6386861c0 3.1140584-2.5185 5.6386861-5.625 5.6386861z" stroke-linecap="round" stroke-linejoin="round"/>
    <path fill="#43B581" d="M134.3282 46.2196248c-3.1065 0-5.625-2.5246277-5.625-5.6386861 0-3.1140584 2.5185-5.6386861 5.625-5.6386861s5.625 2.5246277 5.625 5.6386861c0 3.1140584-2.5185 5.6386861-5.625 5.6386861"/>
    <path stroke="#1A1C1E" stroke-width="3" d="M134.3282 46.2196248c-3.1065 0-5.625-2.5246277-5.625-5.6386861 0-3.1140584 2.5185-5.6386861 5.625-5.6386861s5.625 2.5246277 5.625 5.6386861c0 3.1140584-2.5185 5.6386861-5.625 5.6386861zM74.251175 58.4127197h-6.10725c-1.3455 0-2.4465-1.1036788-2.4465-2.4524525 0-1.3487738 1.101-2.4524526 2.4465-2.4524526h6.10725c1.3455 0 2.4465 1.1036788 2.4465 2.4524526 0 1.3487737-1.101 2.4524525-2.4465 2.4524525zm16.946475 0H85.0904c-1.3455 0-2.4465-1.1036788-2.4465-2.4524525 0-1.3487738 1.101-2.4524526 2.4465-2.4524526h6.10725c1.3455 0 2.4465 1.1036788 2.4465 2.4524526 0 1.3487737-1.101 2.4524525-2.4465 2.4524525z" stroke-linecap="round" stroke-linejoin="round"/>
  </g>
</svg>