<?xml version="1.0" encoding="utf-8"?>
<!-- Generator: Adobe Illustrator 22.0.0, SVG Export Plug-In . SVG Version: 6.00 Build 0)  -->
<svg version="1.1" id="Layer_1" xmlns="http://www.w3.org/2000/svg" xmlns:xlink="http://www.w3.org/1999/xlink" x="0px" y="0px"
	 viewBox="0 0 130 36" style="enable-background:new 0 0 130 36;" xml:space="preserve">
<style type="text/css">
	.st0{fill:#FFFFFF;}
</style>
<ellipse class="st0" cx="19.6" cy="17.1" rx="1.9" ry="2"/>
<ellipse class="st0" cx="12.8" cy="17.1" rx="1.9" ry="2"/>
<path class="st0" d="M28.5,0H3.8C1.7,0,0,1.7,0,3.7V28c0,2.1,1.7,3.7,3.8,3.7h21l-1-3.3l2.4,2.1l2.2,2l4,3.4V3.7
	C32.3,1.7,30.6,0,28.5,0z M21.4,23.5c0,0-0.7-0.8-1.2-1.5c2.4-0.7,3.3-2.1,3.3-2.1c-0.8,0.5-1.5,0.8-2.1,1.1
	c-0.9,0.4-1.8,0.6-2.7,0.8c-1.8,0.3-3.4,0.2-4.8,0c-1.1-0.2-2-0.5-2.7-0.8c-0.4-0.2-0.9-0.4-1.4-0.6c-0.1,0-0.1-0.1-0.2-0.1H9.5
	C9.2,20.1,9,20,9,20s0.9,1.4,3.2,2.1c-0.6,0.7-1.2,1.5-1.2,1.5c-4.1-0.1-5.6-2.7-5.6-2.7c0-5.8,2.7-10.5,2.7-10.5
	c2.7-2,5.2-1.9,5.2-1.9l0.2,0.2C10.2,9.5,8.7,11,8.7,11s0.4-0.2,1.1-0.5c2-0.8,3.5-1.1,4.2-1.1h0.3c1.1-0.1,2.4-0.2,3.7,0
	c1.8,0.2,3.6,0.7,5.6,1.7c0,0-1.5-1.4-4.6-2.3l0.3-0.3c0,0,2.5-0.1,5.2,1.9c0,0,2.7,4.7,2.7,10.5C27.1,20.8,25.5,23.4,21.4,23.5z
	 M45.2,7.8h-6.1v6.8l4.1,3.6v-6.6h2.2c1.4,0,2.1,0.7,2.1,1.7v5c0,1-0.6,1.8-2.1,1.8h-6.3v3.8h6.1c3.3,0,6.4-1.6,6.4-5.3v-5.4
	C51.6,9.4,48.5,7.8,45.2,7.8z M77.4,18.6V13c0-2,3.7-2.5,4.8-0.5l3.4-1.3c-1.3-2.9-3.8-3.7-5.8-3.7c-3.3,0-6.5,1.9-6.5,5.5v5.6
	c0,3.7,3.2,5.5,6.5,5.5c2.1,0,4.5-1,5.9-3.6L82,18.9C81.1,21.1,77.4,20.6,77.4,18.6z M66.2,13.8c-1.3-0.3-2.1-0.7-2.2-1.5
	c0.1-1.9,3-1.9,4.7-0.1l2.7-2c-1.7-2-3.6-2.6-5.6-2.6c-3,0-5.9,1.7-5.9,4.8s2.4,4.7,5.1,5.1c1.3,0.2,2.8,0.7,2.8,1.6
	c-0.1,1.7-3.7,1.6-5.4-0.3l-2.6,2.4c1.5,1.9,3.6,2.9,5.6,2.9c3,0,6.3-1.7,6.5-4.8C72,15.3,69.1,14.3,66.2,13.8z M53.8,23.9H58V7.8
	h-4.1v16.1L53.8,23.9z M93.5,7.6c-3.4,0-6.8,1.8-6.8,5.5v5.5c0,3.7,3.4,5.5,6.8,5.5s6.8-1.8,6.8-5.5v-5.5
	C100.3,9.4,96.9,7.6,93.5,7.6z M96.2,18.6c0,1.2-1.3,1.8-2.6,1.8s-2.7-0.6-2.7-1.8v-5.5c0-1.2,1.3-1.8,2.6-1.8s2.7,0.6,2.7,1.8V18.6
	z M115.2,13.1c-0.1-3.8-2.7-5.3-6.1-5.3h-6.6v16.1h4.2v-5.1h0.7l3.8,5.1h5.2l-4.5-5.5C114,17.8,115.2,16.1,115.2,13.1z M109.2,15.3
	h-2.4v-3.7h2.4C111.8,11.6,111.8,15.3,109.2,15.3z M123.6,13.8c-1.3-0.3-2.1-0.7-2.2-1.5c0.1-1.9,3-1.9,4.7-0.1l2.7-2
	c-1.7-2-3.6-2.6-5.6-2.6c-3,0-5.9,1.7-5.9,4.8s2.4,4.7,5.1,5.1c1.3,0.2,2.8,0.7,2.8,1.6c-0.1,1.7-3.7,1.6-5.4-0.3l-2.6,2.4
	c1.5,1.9,3.6,2.9,5.6,2.9c3,0,6.3-1.7,6.5-4.8C129.4,15.2,126.5,14.2,123.6,13.8z"/>
</svg>
