<svg xmlns="http://www.w3.org/2000/svg" width="118" height="202" xmlns:xlink="http://www.w3.org/1999/xlink">
  <defs>
    <path id="a" d="M0 201.685361h117.560318V0H0z"/>
    <path id="c" d="M0 201.685361h117.560318V0H0z"/>
    <path id="e" d="M0 201.685361h117.560318V0H0z"/>
    <path id="g" d="M0 201.685361h117.560318V0H0z"/>
    <path id="i" d="M0 201.685361h117.560318V0H0z"/>
  </defs>
  <g fill="none" fill-rule="evenodd">
    <path fill="#E6EBF4" d="M73.5085885 88.753919V75.9205361H44.0521809V88.753919c0 7.3328252-4.4261274 14.008587-11.2656178 16.66913-18.3072867 7.122565-31.2835287 24.897063-31.2835287 45.709071 0 27.090528 21.9803185 49.051457 49.0947643 49.051457h16.365172c27.1136943 0 49.0940123-21.960929 49.0940123-49.051457 0-20.812008-12.97549-38.586506-31.2835282-45.709071-6.8387389-2.660543-11.2648663-9.3363048-11.2648663-16.66913z"/>
    <mask id="b" fill="#fff">
      <use xlink:href="#a"/>
    </mask>
    <path fill="#C5CBD8" d="M44.0523312 87.9113011h29.4564077V75.920461H44.0523312" mask="url(#b)"/>
    <mask id="d" fill="#fff">
      <use xlink:href="#c"/>
    </mask>
    <path fill="#43B581" d="M82.8263796 139.303781c-20.5297452 3.055531-35.9148407-20.332164-55.8200127-10.802119-5.6482166 5.876022-9.1386115 13.839628-9.1386115 22.630758 0 18.059851 14.6537962 32.700721 32.730344 32.700721h16.3644203c18.0765478 0 32.7295924-14.64087 32.7295924-32.700721 0-4.021978-.7365605-7.867487-2.0728917-11.421636-.9612866-2.556914-3.9045223-3.74113-6.4321274-2.69884-2.620051 1.080588-5.4460382 1.857799-8.3607134 2.291837" mask="url(#d)"/>
    <mask id="f" fill="#fff">
      <use xlink:href="#e"/>
    </mask>
    <path stroke="#1A1C1E" stroke-width="3" d="M82.8263796 139.303781c-20.5297452 3.055531-35.9148407-20.332164-55.8200127-10.802119-5.6482166 5.876022-9.1386115 13.839628-9.1386115 22.630758 0 18.059851 14.6537962 32.700721 32.730344 32.700721h16.3644203c18.0765478 0 32.7295924-14.64087 32.7295924-32.700721 0-4.021978-.7365605-7.867487-2.0728917-11.421636-.9612866-2.556914-3.9045223-3.74113-6.4321274-2.69884-2.620051 1.080588-5.4460382 1.857799-8.3607134 2.291837z" mask="url(#f)"/>
    <mask id="h" fill="#fff">
      <use xlink:href="#g"/>
    </mask>
    <path stroke="#1A1C1E" stroke-width="3" d="M73.5085885 88.753919V75.9205361H44.0521809V88.753919c0 7.3328252-4.4261274 14.008587-11.2656178 16.66913-18.3072867 7.122565-31.2835287 24.897063-31.2835287 45.709071 0 27.090528 21.9803185 49.051457 49.0947643 49.051457h16.365172c27.1136943 0 49.0940123-21.960929 49.0940123-49.051457 0-20.812008-12.97549-38.586506-31.2835282-45.709071-6.8387389-2.660543-11.2648663-9.3363048-11.2648663-16.66913z" mask="url(#h)"/>
    <mask id="j" fill="#fff">
      <use xlink:href="#i"/>
    </mask>
    <path fill="#E6EBF4" d="M78.418065 78.9239532H39.1421032c-5.4227389 0-9.8188026-4.3921859-9.8188026-9.8101413 0-5.4179554 4.3960637-9.8101413 9.8188026-9.8101413H78.418065c5.4227388 0 9.8188025 4.3921859 9.8188025 9.8101413 0 5.4179554-4.3960637 9.8101413-9.8188025 9.8101413" mask="url(#j)"/>
    <path stroke="#1A1C1E" stroke-width="3" d="M52.9351006 59.3034454h25.4827389c5.4227388 0 9.8188025 4.3921858 9.8188025 9.8101412s-4.3960637 9.8101413-9.8188025 9.8101413H39.1426293c-5.4234904 0-9.8195541-4.3921859-9.8195541-9.8101413 0-5.4179554 4.3960637-9.8101412 9.8195541-9.8101412"/>
  </g>
</svg>
