<svg xmlns="http://www.w3.org/2000/svg" width="92" height="95">
  <g fill="none" fill-rule="evenodd">
    <path fill="#7C878C" d="M2 93.29125h88.5467731V8.76775h-11.866916v-7.0185H2v17.088"/>
    <path stroke="#1A1C1E" stroke-width="3" d="M2.5933832 20.668225h87.3598571M2.5933832 26.1607h87.3598571M2.5933832 15.17575h87.3598571M2 93.29125h88.5467731V8.76775h-11.866916v-7.0185H2v17.088z" stroke-linecap="round" stroke-linejoin="round"/>
    <path fill="#99A6AD" d="M67.7253782 29.734H24.821395c-5.0415883 0-9.1288572-4.09875-9.1288572-9.1545 0-5.05575 4.0872689-9.15375 9.1288572-9.15375h42.9039832c5.0415882 0 9.1288571 4.098 9.1288571 9.15375 0 5.05575-4.0872689 9.1545-9.1288571 9.1545"/>
    <path stroke="#1A1C1E" stroke-width="3" d="M67.7253782 29.734H24.821395c-5.0415883 0-9.1288572-4.09875-9.1288572-9.1545 0-5.05575 4.0872689-9.15375 9.1288572-9.15375h42.9039832c5.0415882 0 9.1288571 4.098 9.1288571 9.15375 0 5.05575-4.0872689 9.1545-9.1288571 9.1545z" stroke-linecap="round" stroke-linejoin="round"/>
    <path fill="#99A6AD" d="M75.0281647 78.644575H17.5184588c-1.008168 0-1.8256218-.81975-1.8256218-1.83075v-36.6165c0-1.011.8174538-1.83075 1.8256218-1.83075h57.5097059c1.0081681 0 1.8256219.81975 1.8256219 1.83075v36.6165c0 1.011-.8174538 1.83075-1.8256219 1.83075"/>
    <path stroke="#1A1C1E" stroke-width="3" d="M75.0281647 78.644575H17.5184588c-1.008168 0-1.8256218-.81975-1.8256218-1.83075v-36.6165c0-1.011.8174538-1.83075 1.8256218-1.83075h57.5097059c1.0081681 0 1.8256219.81975 1.8256219 1.83075v36.6165c0 1.011-.8174538 1.83075-1.8256219 1.83075zm-23.3758126.91545l-5.3788908 4.8825-5.3788907-4.8825" stroke-linecap="round" stroke-linejoin="round"/>
  </g>
</svg>