<svg xmlns="http://www.w3.org/2000/svg" width="140" height="267">
  <g fill="none" fill-rule="evenodd">
    <path fill="#99A6AD" d="M107.2664 15.8568c-33.823-22.07-70.108-15.366-97.8 7.738 13.048-8.917 30.007-11.798 46.001-6.262l9.153 3.167c26.797 9.274 41.134 38.787 31.86 65.584l-24.622 71.145 22.157 47.119 40.767-118.264c8.944-25.844-5.446-55.826-27.516-70.227"/>
    <path stroke="#1A1C1E" stroke-width="4" d="M107.2664 15.8565c-33.823-22.736-69.066-15.389-96.642 6.81h.286c12.842-8.169 44.332-8.453 60.991 1 16.66 9.454 33.853 35.62 24.579 62.418l-24.622 71.145 22.157 47.118 40.767-118.263c8.944-25.844-5.645-55.526-27.516-70.228zM92.7297 180.462l-1.277-2.715" stroke-linecap="round" stroke-linejoin="round"/>
    <path stroke="#1A1C1E" stroke-width="4" d="M87.0598 168.4058l-5.499-11.693 23.425-67.685c6.315-18.249 1.892-34.27-2.929-44.496-5.685-12.056-15.298-22.783-25.714-28.693-2.981-1.691-20.093-7.552-39.345-6.098" stroke-linecap="round" stroke-linejoin="round" stroke-dasharray="6.194 10.323"/>
    <path stroke="#1A1C1E" stroke-width="4" d="M31.8671 10.3038c-.984.143-1.971.307-2.959.493" stroke-linecap="round" stroke-linejoin="round"/>
    <path fill="#7C878C" d="M43.4822 261.3679l-7.334-2.9c-27.637-10.926-41.309-42.479-30.382-70.116l10.706-27.077c10.926-27.638 42.479-41.31 70.116-30.383l7.334 2.9c27.637 10.927 41.309 42.479 30.382 70.116l-10.706 27.078c-10.927 27.637-42.479 41.309-70.116 30.382"/>
    <path fill="#E6EBF4" d="M57.8688 245.9819l-2.026-.801c-18.655-7.376-27.884-28.674-20.508-47.329l9.207-23.288c7.376-18.656 28.674-27.884 47.33-20.509l2.025.801c18.656 7.376 27.884 28.674 20.509 47.329l-9.208 23.289c-7.376 18.655-28.674 27.884-47.329 20.508"/>
    <path stroke="#1A1C1E" stroke-width="4" d="M57.8688 245.9819l-2.026-.801c-18.655-7.376-27.884-28.674-20.508-47.329l9.207-23.288c7.376-18.656 28.674-27.884 47.33-20.509l2.025.801c18.656 7.376 27.884 28.674 20.509 47.329l-9.208 23.289c-7.376 18.655-28.674 27.884-47.329 20.508z" stroke-linecap="round" stroke-linejoin="round"/>
    <path fill="#738BD7" d="M73.2394 225.7164c-8.353-3.303-12.486-12.839-9.183-21.192l6.005-15.188c3.302-8.353 12.839-12.486 21.192-9.183 8.353 3.303 12.486 12.839 9.183 21.192l-6.005 15.188c-3.302 8.353-12.839 12.486-21.192 9.183"/>
    <path stroke="#1A1C1E" stroke-width="4" d="M73.2394 225.7164c-8.353-3.303-12.486-12.839-9.183-21.192l6.005-15.188c3.302-8.353 12.839-12.486 21.192-9.183 8.353 3.303 12.486 12.839 9.183 21.192l-6.005 15.188c-3.302 8.353-12.839 12.486-21.192 9.183z" stroke-linecap="round" stroke-linejoin="round"/>
    <path stroke="#1A1C1E" stroke-width="4" d="M43.4822 261.3679l-7.334-2.9c-27.637-10.926-41.309-42.479-30.382-70.116l10.706-27.077c10.926-27.638 42.479-41.31 70.116-30.383l7.334 2.9c27.637 10.927 41.309 42.479 30.382 70.116l-10.706 27.078c-10.927 27.637-42.479 41.309-70.116 30.382zm23.5766-64.4377l30.375 12.009" stroke-linecap="round" stroke-linejoin="round"/>
  </g>
</svg>