<svg xmlns="http://www.w3.org/2000/svg" width="142" height="251" xmlns:xlink="http://www.w3.org/1999/xlink">
  <defs>
    <path id="a" d="M0 251h141.997746V0H0z"/>
  </defs>
  <g fill="none" fill-rule="evenodd">
    <path fill="#E6EBF4" d="M10.0579577 40.8017033H3.30356614c-.99475133 0-1.80092064-.8063563-1.80092064-1.8013383v-4.9546198c0-.994982.8061693-1.8013383 1.80092064-1.8013383h6.75439156v8.5572964zm0 27.0230808H3.30356614c-.99475133 0-1.80092064-.8063563-1.80092064-1.8013383v-13.061018c0-.994982.8061693-1.8020898 1.80092064-1.8020898h6.75439156v16.6644461zm128.6356963 3.0059881h-6.754392V54.166326h6.754392c.994751 0 1.800921.8071078 1.800921 1.8020899v13.0610179c0 .9949821-.80617 1.8013384-1.800921 1.8013384"/>
    <path stroke="#1A1C1E" stroke-width="3" d="M138.693654 70.8307722h-6.754392V54.166326h6.754392c.994751 0 1.800921.8071078 1.800921 1.8020899v13.0610179c0 .9949821-.80617 1.8013384-1.800921 1.8013384z" stroke-linecap="round" stroke-linejoin="round"/>
    <path fill="#E6EBF4" d="M10.0579577 88.9928015H3.30356614c-.99475133 0-1.80092064-.8063563-1.80092064-1.8013383v-13.061018c0-.994982.8061693-1.8020898 1.80092064-1.8020898h6.75439156v16.6644461z"/>
    <path stroke="#1A1C1E" stroke-width="3" d="M10.0579577 40.8017033H3.30356614c-.99475133 0-1.80092064-.8063563-1.80092064-1.8013383v-4.9546198c0-.994982.8061693-1.8013383 1.80092064-1.8013383h6.75439156v8.5572964zM1.5026455 66.0232204v-13.061018c0-.994982.8061693-1.8013383 1.80092064-1.8013383h6.75439156v16.6636946m-8.5553122 10.25087v-3.9453592c0-.9949821.8061693-1.8013384 1.80092064-1.8013384h6.75439156v16.6636946H3.30356614c-.99475133 0-1.80092064-.8063562-1.80092064-1.8013383v-2.9345958" stroke-linecap="round" stroke-linejoin="round"/>
    <path fill="#E6EBF4" d="M117.662703 249.497006H23.5542688c-9.4501376 0-17.11062436-7.662263-17.11062436-17.114593V18.6175868c0-9.4523293 7.66048676-17.1145928 17.11062436-17.1145928h94.1084342c9.450137 0 17.110624 7.6622635 17.110624 17.1145928V232.382413c0 9.45233-7.660487 17.114593-17.110624 17.114593"/>
    <path stroke="#1A1C1E" stroke-width="3" d="M6.44371958 140.708045V18.6175868c0-9.4523293 7.66048672-17.1145928 17.11062432-17.1145928h94.1084341c9.450137 0 17.110624 7.6622635 17.110624 17.1145928V232.382413c0 9.45233-7.660487 17.114593-17.110624 17.114593H23.5543439c-9.4501376 0-17.11062432-7.662263-17.11062432-17.114593v-56.914626m0-12.809567v-12.824296" stroke-linecap="round" stroke-linejoin="round"/>
    <path fill="#D3D8E5" d="M72.9503587 13.2575344c0 .8702336-.705492 1.5766407-1.5762751 1.5766407-.8700317 0-1.5755238-.7064071-1.5755238-1.5766407 0-.8702335.7054921-1.5766407 1.5755238-1.5766407.8707831 0 1.5762751.7064072 1.5762751 1.5766407m-12.2700772 7.957677c0 .994982-.8061693 1.8013383-1.8009207 1.8013383-.9947513 0-1.8016719-.8063563-1.8016719-1.8013383 0-.9949821.8069206-1.8013383 1.8016719-1.8013383.9947514 0 1.8009207.8063562 1.8009207 1.8013383m23.8647905 1.1259679H69.6861619c-.6220952 0-1.1262328-.5042544-1.1262328-1.1257425 0-.6222395.5041376-1.126494 1.1262328-1.126494H84.545072c.6213439 0 1.1254814.5042545 1.1254814 1.126494 0 .6214881-.5041375 1.1257425-1.1254814 1.1257425M80.379964 233.098289c0-4.97491-4.0315979-9.007443-9.0053545-9.007443-4.9737566 0-9.0061058 4.032533-9.0061058 9.007443s4.0323492 9.007443 9.0061058 9.007443c4.9737566 0 9.0053545-4.032533 9.0053545-9.007443"/>
    <mask id="b" fill="#fff">
      <use xlink:href="#a"/>
    </mask>
    <path fill="#36393E" d="M16.1812381 216.733991H126.950254V32.6946287H16.1812381" mask="url(#b)"/>
    <path fill="#2C2F36" d="M88.8694603 56.0616766h38.0800427V32.6946287H88.8694603" mask="url(#b)"/>
    <path fill="#2E3136" d="M38.7209206 216.733991h67.1922964V32.6946287H38.7209206" mask="url(#b)"/>
    <path fill="#212326" d="M16.1812381 216.733991h28.1235132V32.6946287H16.1812381" mask="url(#b)"/>
    <path fill="#878B97" d="M15.7989651 70.4429997h1.5026455c.8302116 0 1.5026455.6725898 1.5026455 1.502994v8.2664671c0 .8304042-.6724339 1.502994-1.5026455 1.502994h-1.5026455V70.4429997z" mask="url(#b)"/>
    <path fill="#282B30" d="M16.1812381 216.733991h89.7319789V190.92082H16.1812381" mask="url(#b)"/>
    <path fill="#F6989D" d="M39.4571418 98.6965817c0 4.9801703-4.0368571 9.0179643-9.015873 9.0179643-4.9790159 0-9.015873-4.037794-9.015873-9.0179643 0-4.9801706 4.0368571-9.017964 9.015873-9.017964 4.9790159 0 9.015873 4.0377934 9.015873 9.017964" mask="url(#b)"/>
    <path fill="#2D3036" d="M39.4571418 47.0440883c0 4.9801707-4.0368571 9.0179641-9.015873 9.0179641-4.9790159 0-9.015873-4.0377934-9.015873-9.0179641 0-4.9801706 4.0368571-9.017964 9.015873-9.017964 4.9790159 0 9.015873 4.0377934 9.015873 9.017964m0 74.1974037c0 4.980171-4.0368571 9.017964-9.015873 9.017964-4.9790159 0-9.015873-4.037793-9.015873-9.017964 0-4.980171 4.0368571-9.017964 9.015873-9.017964 4.9790159 0 9.015873 4.037793 9.015873 9.017964" mask="url(#b)"/>
    <path fill="#5AC8FA" d="M39.4571418 143.786402c0 4.980171-4.0368571 9.017964-9.015873 9.017964-4.9790159 0-9.015873-4.037793-9.015873-9.017964 0-4.980171 4.0368571-9.017964 9.015873-9.017964 4.9790159 0 9.015873 4.037793 9.015873 9.017964" mask="url(#b)"/>
    <path fill="#A3D49C" d="M38.7208455 203.154666c0 4.150518-3.363672 7.51497-7.5132275 7.51497-4.1495556 0-7.5132275-3.364452-7.5132275-7.51497s3.3636719-7.51497 7.5132275-7.51497c4.1495555 0 7.5132275 3.364452 7.5132275 7.51497" mask="url(#b)"/>
    <path fill="#43B581" d="M42.3271196 206.912151c0 2.074883-1.6822117 3.757485-3.7566138 3.757485-2.0744021 0-3.7566137-1.682602-3.7566137-3.757485 0-2.074884 1.6822116-3.757485 3.7566137-3.757485s3.7566138 1.682601 3.7566138 3.757485" mask="url(#b)"/>
    <path fill="#2D3036" d="M38.3301577 62.7251254H22.5523799c-.6220952 0-1.1269841-.5050059-1.1269841-1.1272455 0-.6222395.5048889-1.1272455 1.1269841-1.1272455h15.7777778c.6220952 0 1.1269841.505006 1.1269841 1.1272455 0 .6222396-.5048889 1.1272455-1.1269841 1.1272455" mask="url(#b)"/>
    <path fill="#878B97" d="M121.351322 42.6804458h-9.767196c-.622095 0-1.126984-.505006-1.126984-1.1272455s.504889-1.1272455 1.126984-1.1272455h9.767196c.622095 0 1.126984.505006 1.126984 1.1272455s-.504889 1.1272455-1.126984 1.1272455m0 3.757485h-9.767196c-.622095 0-1.126984-.5050059-1.126984-1.1272455 0-.6222395.504889-1.1272455 1.126984-1.1272455h9.767196c.622095 0 1.126984.505006 1.126984 1.1272455 0 .6222396-.504889 1.1272455-1.126984 1.1272455m0 3.7574851h-9.767196c-.622095 0-1.126984-.505006-1.126984-1.1272455 0-.6222396.504889-1.1272455 1.126984-1.1272455h9.767196c.622095 0 1.126984.5050059 1.126984 1.1272455 0 .6222395-.504889 1.1272455-1.126984 1.1272455M71.6337407 202.403169h-24.042328c-.8302116 0-1.5026455-.67259-1.5026455-1.502994v-1.502994c0-.830405.6724339-1.502994 1.5026455-1.502994h24.042328c.8302117 0 1.5026455.672589 1.5026455 1.502994v1.502994c0 .830404-.6724338 1.502994-1.5026455 1.502994" mask="url(#b)"/>
    <path fill="#2C2F36" d="M95.6760688 66.4826105H52.0993492c-.4147302 0-.7513227-.3366707-.7513227-.751497v-9.0179641c0-.4148263.3365925-.751497.7513227-.751497h43.5767196c.4147301 0 .7513227.3366707.7513227.751497v9.0179641c0 .4148263-.3365926.751497-.7513227.751497" mask="url(#b)"/>
    <path fill="#878B97" d="M94.9157302 92.6208787H52.8491693c-.8294603 0-1.5026455-.6725898-1.5026455-1.502994v-3.0052365c0-.8296527.6731852-1.502994 1.5026455-1.502994h42.0665609c.8294603 0 1.5026455.6733413 1.5026455 1.502994v3.0052365c0 .8304042-.6731852 1.502994-1.5026455 1.502994m-50.3347175 0h-.2764868v-6.0112245h.2764868c1.659672 0 3.0045397 1.3459311 3.0045397 3.005988 0 1.6593054-1.3448677 3.0052365-3.0045397 3.0052365" mask="url(#b)"/>
    <path fill="#555A61" d="M94.9157302 104.642727H52.8491693c-.8294603 0-1.5026455-.67259-1.5026455-1.502994v-3.005237c0-.8296526.6731852-1.5029939 1.5026455-1.5029939h42.0665609c.8294603 0 1.5026455.6733413 1.5026455 1.5029939v3.005237c0 .830404-.6731852 1.502994-1.5026455 1.502994m-4.9688731 12.021848H52.849545c-.8302117 0-1.5026455-.67259-1.5026455-1.502994v-3.005237c0-.829653.6724338-1.502994 1.5026455-1.502994h37.0973121c.8294604 0 1.5026455.673341 1.5026455 1.502994v3.005237c0 .830404-.6731851 1.502994-1.5026455 1.502994" mask="url(#b)"/>
    <path fill="#878B97" d="M94.9157302 128.686347H52.8491693c-.8294603 0-1.5026455-.67259-1.5026455-1.502994v-3.005236c0-.829653.6731852-1.502994 1.5026455-1.502994h42.0665609c.8294603 0 1.5026455.673341 1.5026455 1.502994v3.005236c0 .830404-.6731852 1.502994-1.5026455 1.502994m-50.3347175 0h-.2764868v-6.011224h.2764868c1.659672 0 3.0045397 1.345931 3.0045397 3.005988 0 1.659305-1.3448677 3.005236-3.0045397 3.005236m30.459 12.021848H52.8489439c-.8294603 0-1.5018942-.67259-1.5018942-1.502994v-3.005236c0-.829653.6724339-1.502994 1.5018942-1.502994h22.1910688c.8294603 0 1.5026455.673341 1.5026455 1.502994v3.005236c0 .830404-.6731852 1.502994-1.5026455 1.502994m10.1134053 0h-3.8062011c-.8294603 0-1.5018941-.67259-1.5018941-1.502994v-3.005236c0-.829653.6724338-1.502994 1.5018941-1.502994h3.8062011c.8294603 0 1.5026455.673341 1.5026455 1.502994v3.005236c0 .830404-.6731852 1.502994-1.5026455 1.502994m-40.5724053 0h-.2764868v-6.011224h.2764868c1.659672 0 3.0045397 1.345931 3.0045397 3.005988 0 1.659305-1.3448677 3.005236-3.0045397 3.005236m40.5693249-60.323942H67.1215968c-.8294603 0-1.5018942-.6725898-1.5018942-1.502994v-3.0052365c0-.8296527.6724339-1.5029941 1.5018942-1.5029941h18.0287408c.8294603 0 1.5026455.6733414 1.5026455 1.5029941v3.0052365c0 .8304042-.6731852 1.502994-1.5026455 1.502994m-24.7892932 0h-7.5117248c-.8302117 0-1.5026455-.6725898-1.5026455-1.502994v-3.0052365c0-.8296527.6724338-1.5029941 1.5026455-1.5029941h7.5117248c.8294604 0 1.5026455.6733414 1.5026455 1.5029941v3.0052365c0 .8304042-.6731851 1.502994-1.5026455 1.502994" mask="url(#b)"/>
    <path fill="#555A61" d="M98.8909037 170.977593H52.8490942c-.8294603 0-1.5026455-.67259-1.5026455-1.502994v-3.005237c0-.829652.6731852-1.502994 1.5026455-1.502994h46.0418095c.8294603 0 1.5026453.673342 1.5026453 1.502994v3.005237c0 .830404-.673185 1.502994-1.5026453 1.502994M84.977909 182.999366H52.8490942c-.8294603 0-1.5026455-.67259-1.5026455-1.502994v-3.005237c0-.829653.6731852-1.502994 1.5026455-1.502994H84.977909c.8294603 0 1.5026455.673341 1.5026455 1.502994v3.005237c0 .830404-.6731852 1.502994-1.5026455 1.502994" mask="url(#b)"/>
    <path fill="#878B97" d="M90.4086201 157.989545H72.3798794c-.8294604 0-1.5018942-.67259-1.5018942-1.502994v-3.005236c0-.829653.6724338-1.502994 1.5018942-1.502994h18.0287407c.8294603 0 1.5026455.673341 1.5026455 1.502994v3.005236c0 .830404-.6731852 1.502994-1.5026455 1.502994m-24.789218 0H52.8491693c-.8294603 0-1.5026455-.67259-1.5026455-1.502994v-3.005236c0-.829653.6731852-1.502994 1.5026455-1.502994h12.7702328c.8294603 0 1.5026455.673341 1.5026455 1.502994v3.005236c0 .830404-.6731852 1.502994-1.5026455 1.502994" mask="url(#b)"/>
    <path fill="#555A61" d="M60.3638995 208.336688H47.5914127c-.8302116 0-1.5026455-.672589-1.5026455-1.502994v-.751497c0-.830404.6724339-1.502994 1.5026455-1.502994h12.7724868c.8302116 0 1.5026455.67259 1.5026455 1.502994v.751497c0 .830405-.6724339 1.502994-1.5026455 1.502994" mask="url(#b)"/>
    <path fill="#878B97" d="M93.4221005 50.8015734H79.898291c-.8302116 0-1.5026455-.6725899-1.5026455-1.5029941v-4.508982c0-.8304042.6724339-1.502994 1.5026455-1.502994h13.5238095c.8302117 0 1.5026455.6725898 1.5026455 1.502994v4.508982c0 .8304042-.6724338 1.5029941-1.5026455 1.5029941m-20.2857143 0H52.850672c-.8302117 0-1.5026455-.6725899-1.5026455-1.5029941v-4.508982c0-.8304042.6724338-1.502994 1.5026455-1.502994h20.2857142c.8302117 0 1.5026455.6725898 1.5026455 1.502994v4.508982c0 .8304042-.6724338 1.5029941-1.5026455 1.5029941" mask="url(#b)"/>
    <path fill="#738BD7" d="M34.9492053 85.0971913h-9.015873c-2.4898836 0-4.5079365-2.0185209-4.5079365-4.508982v-9.0179641c0-2.4904611 2.0180529-4.508982 4.5079365-4.508982h9.015873c2.4898836 0 4.5079365 2.0185209 4.5079365 4.508982v9.0179641c0 2.4904611-2.0180529 4.508982-4.5079365 4.508982" mask="url(#b)"/>
    <path stroke="#1A1C1E" stroke-width="3" d="M16.1812381 216.733991H126.950254V32.6946287H16.1812381z" stroke-linecap="round" stroke-linejoin="round" mask="url(#b)"/>
  </g>
</svg>