<svg xmlns="http://www.w3.org/2000/svg" width="608" height="350" xmlns:xlink="http://www.w3.org/1999/xlink">
  <defs>
    <path id="a" d="M0 349.255032h608V0H0z"/>
  </defs>
  <g fill="none" fill-rule="evenodd">
    <path fill="#E6EBF4" d="M549.89889 321.519968H58.1011097V16.487848c0-8.27858676 6.7127399-14.9892934 14.9938348-14.9892934H534.905055c8.281095 0 14.993835 6.71070664 14.993835 14.9892934v305.03212z"/>
    <path stroke="#1A1C1E" stroke-width="3" d="M549.89889 179.45879v142.061028H58.1011097V16.4876981c0-8.2778373 6.7127399-14.9892934 14.9938348-14.9892934H534.905055c8.281095 0 14.993835 6.7114561 14.993835 14.9892934v44.5586723m0 17.1847003v73.0135973" stroke-linecap="round" stroke-linejoin="round"/>
    <path fill="#D3D8E5" d="M591.506782 347.756103H16.4932182c-8.2810949 0-14.99383472-6.710707-14.99383472-14.989294v-8.993576c0-1.655567 1.3426979-2.997858 2.99876695-2.997858H603.50185c1.656069 0 2.998767 1.342291 2.998767 2.997858v8.993576c0 8.278587-6.71274 14.989294-14.993835 14.989294"/>
    <path stroke="#1A1C1E" stroke-width="3" d="M133.467545 347.756103H16.4931433c-8.28109496 0-14.9938348-6.710707-14.9938348-14.989294v-8.993576c0-1.655567 1.3426979-2.997858 2.99876696-2.997858H603.501775c1.656069 0 2.998767 1.342291 2.998767 2.997858v8.993576c0 8.278587-6.71274 14.989294-14.993835 14.989294H240.116443m-45.447288 0h-37.401371" stroke-linecap="round" stroke-linejoin="round"/>
    <path fill="#E6EBF4" d="M329.447911 332.331445h-50.895822c-7.520158 0-14.541771-3.757066-18.713056-10.012098l-.820162-1.229872h89.963008l-.820163 1.229872c-4.171284 6.255032-11.193647 10.012098-18.713805 10.012098"/>
    <path stroke="#1A1C1E" stroke-width="3" d="M329.447911 332.331445h-50.895822c-7.520158 0-14.541771-3.757066-18.713056-10.012098l-.820162-1.229872h89.963008l-.820163 1.229872c-4.171284 6.255032-11.193647 10.012098-18.713805 10.012098z" stroke-linecap="round" stroke-linejoin="round"/>
    <mask id="b" fill="#fff">
      <use xlink:href="#a"/>
    </mask>
    <path fill="#36393E" d="M78.9192996 304.833512H528.734343V27.3599572H78.9192996" mask="url(#b)"/>
    <path fill="#2E3136" d="M121.91637 304.833512h118.200148V27.3599572H121.91637" mask="url(#b)"/>
    <path fill="#878B97" d="M231.380285 39.1518844h-10.419216c-.664227 0-1.202505-.5381157-1.202505-1.2021414 0-.6632762.538278-1.2013918 1.202505-1.2013918h10.419216c.664227 0 1.202506.5381156 1.202506 1.2013918 0 .6640257-.538279 1.2021414-1.202506 1.2021414m0 4.0062634h-10.419216c-.664227 0-1.202505-.5381157-1.202505-1.2021414 0-.6632762.538278-1.2013918 1.202505-1.2013918h10.419216c.664227 0 1.202506.5381156 1.202506 1.2013918 0 .6640257-.538279 1.2021414-1.202506 1.2021414m0 4.0063383h-10.419216c-.664227 0-1.202505-.5381157-1.202505-1.2021413 0-.6632763.538278-1.2013919 1.202505-1.2013919h10.419216c.664227 0 1.202506.5381156 1.202506 1.2013919 0 .6640256-.538279 1.2021413-1.202506 1.2021413" mask="url(#b)"/>
    <path fill="#2C2F36" d="M123.818338 115.197216h116.29818V97.9595289h-116.29818" mask="url(#b)"/>
    <path fill="#878B97" d="M199.220309 92.9821092H135.71692c-1.242239 0-2.249075-1.006531-2.249075-2.248394v-4.5672377c0-1.2418629 1.006836-2.248394 2.249075-2.248394h63.503389c1.242239 0 2.249075 1.0065311 2.249075 2.248394v4.5672377c0 1.241863-1.006836 2.248394-2.249075 2.248394m-75.960566 0h-.417579v-9.0640257h.417579c2.50397 0 4.533385 2.0288009 4.533385 4.5320129s-2.029415 4.5320128-4.533385 4.5320128" mask="url(#b)"/>
    <path fill="#555A61" d="M199.202691 111.110385h-63.468153c-1.251985 0-2.267068-1.014775-2.267068-2.266381v-4.532013c0-1.250856 1.015083-2.265631 2.267068-2.265631h63.468153c1.251985 0 2.267068 1.014775 2.267068 2.265631v4.532013c0 1.251606-1.015083 2.266381-2.267068 2.266381m-7.496917 18.128352h-55.971236c-1.251985 0-2.267068-1.014776-2.267068-2.266382v-4.532012c0-1.250857 1.015083-2.265632 2.267068-2.265632h55.971236c1.251985 0 2.267067 1.014775 2.267067 2.265632v4.532012c0 1.251606-1.015082 2.266382-2.267067 2.266382" mask="url(#b)"/>
    <path fill="#878B97" d="M199.202691 147.367013h-63.468153c-1.251985 0-2.267068-1.014775-2.267068-2.266381v-4.532013c0-1.250857 1.015083-2.265632 2.267068-2.265632h63.468153c1.251985 0 2.267068 1.014775 2.267068 2.265632v4.532013c0 1.251606-1.015083 2.266381-2.267068 2.266381m-75.942948 0h-.417579v-9.064026h.417579c2.50397 0 4.533385 2.028801 4.533385 4.532013s-2.029415 4.532013-4.533385 4.532013m-.417504-32.169797h1.952197V97.9595289h-1.952197m46.372782 67.5358351h-33.480483c-1.251985 0-2.267068-1.014775-2.267068-2.266381v-4.532013c0-1.250857 1.015083-2.265632 2.267068-2.265632h33.480483c1.251986 0 2.267068 1.014775 2.267068 2.265632v4.532013c0 1.251606-1.015082 2.266381-2.267068 2.266381m15.258551 0h-5.741889c-1.251985 0-2.267067-1.014775-2.267067-2.266381v-4.532013c0-1.250857 1.015082-2.265632 2.267067-2.265632h5.741889c1.251986 0 2.267068 1.014775 2.267068 2.265632v4.532013c0 1.251606-1.015082 2.266381-2.267068 2.266381m-61.213829 0h-.417579v-9.064026h.417579c2.50397 0 4.533385 2.028801 4.533385 4.532013s-2.029415 4.532013-4.533385 4.532013" mask="url(#b)"/>
    <path fill="#555A61" d="M184.468999 74.5297645h-27.201065c-1.251236 0-2.266318-1.0147752-2.266318-2.2663812v-4.5320129c0-1.2508565 1.015082-2.2656316 2.266318-2.2656316h27.201065c1.251985 0 2.267068 1.0147751 2.267068 2.2656316v4.5320129c0 1.251606-1.015083 2.2663812-2.267068 2.2663812m-37.400996 0h-11.33384c-1.251985 0-2.266318-1.0147752-2.266318-2.2663812v-4.5320129c0-1.2508565 1.014333-2.2656316 2.266318-2.2656316h11.33384c1.251985 0 2.267068 1.0147751 2.267068 2.2656316v4.5320129c0 1.251606-1.015083 2.2663812-2.267068 2.2663812m58.132222 136.6103965h-69.465687c-1.251985 0-2.267068-1.014776-2.267068-2.266382v-4.532012c0-1.250857 1.015083-2.265632 2.267068-2.265632h69.465687c1.251985 0 2.267068 1.014775 2.267068 2.265632v4.532012c0 1.251606-1.015083 2.266382-2.267068 2.266382m-20.991369 18.128276h-48.474318c-1.251985 0-2.267068-1.014775-2.267068-2.266381v-4.532013c0-1.250857 1.015083-2.265632 2.267068-2.265632h48.474318c1.251985 0 2.267068 1.014775 2.267068 2.265632v4.532013c0 1.251606-1.015083 2.266381-2.267068 2.266381m8.193681-37.713662h-27.201065c-1.251236 0-2.266318-1.014775-2.266318-2.266381v-4.532013c0-1.250856 1.015082-2.265632 2.266318-2.265632h27.201065c1.251985 0 2.267068 1.014776 2.267068 2.265632v4.532013c0 1.251606-1.015083 2.266381-2.267068 2.266381m-37.400996 0h-19.267078c-1.251985 0-2.267068-1.014775-2.267068-2.266381v-4.532013c0-1.250856 1.015083-2.265632 2.267068-2.265632h19.267078c1.251985 0 2.267068 1.014776 2.267068 2.265632v4.532013c0 1.251606-1.015083 2.266381-2.267068 2.266381" mask="url(#b)"/>
    <path fill="#282B30" d="M121.91637 304.833512h118.200148V265.91531H121.91637" mask="url(#b)"/>
    <path fill="#A3D49C" d="M155.917439 284.359486c0 6.257281-5.073913 11.330407-11.333839 11.330407-6.259177 0-11.333091-5.073126-11.333091-11.330407 0-6.25728 5.073914-11.330407 11.333091-11.330407 6.259926 0 11.333839 5.073127 11.333839 11.330407" mask="url(#b)"/>
    <path fill="#43B581" d="M161.357427 290.024615c0 3.129015-2.536956 5.665203-5.666919 5.665203s-5.66692-2.536188-5.66692-5.665203 2.536957-5.665204 5.66692-5.665204 5.666919 2.536189 5.666919 5.665204" mask="url(#b)"/>
    <path fill="#878B97" d="M205.566224 283.22652h-36.267837c-1.251985 0-2.266318-1.014775-2.266318-2.266381v-2.265632c0-1.251606 1.014333-2.266381 2.266318-2.266381h36.267837c1.251986 0 2.267068 1.014775 2.267068 2.266381v2.265632c0 1.251606-1.015082 2.266381-2.267068 2.266381" mask="url(#b)"/>
    <path fill="#555A61" d="M188.565765 292.172281h-19.267078c-1.251985 0-2.267068-1.014776-2.267068-2.266382v-1.132441c0-1.251606 1.015083-2.266381 2.267068-2.266381h19.267078c1.251985 0 2.267068 1.014775 2.267068 2.266381v1.132441c0 1.251606-1.015083 2.266382-2.267068 2.266382" mask="url(#b)"/>
    <path fill="#878B97" d="M196.935923 47.9139507h-20.400612c-1.251985 0-2.266318-1.0147751-2.266318-2.2663811v-6.7976445c0-1.251606 1.014333-2.2663812 2.266318-2.2663812h20.400612c1.251985 0 2.267068 1.0147752 2.267068 2.2663812v6.7976445c0 1.251606-1.015083 2.2663811-2.267068 2.2663811m-30.600767 0h-30.600918c-1.251985 0-2.266318-1.0147751-2.266318-2.2663811v-6.7976445c0-1.251606 1.014333-2.2663812 2.266318-2.2663812h30.600918c1.251985 0 2.267067 1.0147752 2.267067 2.2663812v6.7976445c0 1.251606-1.015082 2.2663811-2.267067 2.2663811" mask="url(#b)"/>
    <path fill="#212326" d="M78.9192996 304.833512h43.9229394V27.3599572H78.9192996" mask="url(#b)"/>
    <path fill="#878B97" d="M78.9192996 93.2657816h2.2670678c1.2512356 0 2.2663182 1.0147751 2.2663182 2.2663811v12.4628483c0 1.251606-1.0150826 2.266381-2.2663182 2.266381h-2.2670678V93.2657816z" mask="url(#b)"/>
    <path fill="#F6989D" d="M114.030887 135.86333c0 7.508886-6.088996 13.596038-13.600158 13.596038-7.5111611 0-13.6009071-6.087152-13.6009071-13.596038 0-7.508887 6.089746-13.596039 13.6009071-13.596039 7.511162 0 13.600158 6.087152 13.600158 13.596039" mask="url(#b)"/>
    <path fill="#2D3036" d="M103.429272 34.1710171c0 1.6555675-1.342698 2.9978587-2.998767 2.9978587-1.6560695 0-2.9987674-1.3422912-2.9987674-2.9978587 0-1.6555674 1.3426979-2.9978586 2.9987674-2.9978586 1.656069 0 2.998767 1.3422912 2.998767 2.9978586m-10.4956099 0c0 1.6555675-1.3426979 2.9978587-2.9987669 2.9978587-1.6560691 0-2.998767-1.3422912-2.998767-2.9978587 0-1.6555674 1.3426979-2.9978586 2.998767-2.9978586 1.656069 0 2.9987669 1.3422912 2.9987669 2.9978586m20.9912939 0c0 1.6555675-1.342698 2.9978587-2.998767 2.9978587s-2.998767-1.3422912-2.998767-2.9978587c0-1.6555674 1.342698-2.9978586 2.998767-2.9978586s2.998767 1.3422912 2.998767 2.9978586m.105931 23.8166381c0 7.5088866-6.088996 13.5960386-13.600158 13.5960386-7.5111611 0-13.6009071-6.087152-13.6009071-13.5960386 0-7.5088865 6.089746-13.5960385 13.6009071-13.5960385 7.511162 0 13.600158 6.087152 13.600158 13.5960385m0 111.8662958c0 7.508886-6.088996 13.596038-13.600158 13.596038-7.5111611 0-13.6009071-6.087152-13.6009071-13.596038 0-7.508887 6.089746-13.596039 13.6009071-13.596039 7.511162 0 13.600158 6.087152 13.600158 13.596039m0 33.990546c0 7.508886-6.088996 13.596038-13.600158 13.596038-7.5111611 0-13.6009071-6.087152-13.6009071-13.596038 0-7.508887 6.089746-13.596039 13.6009071-13.596039 7.511162 0 13.600158 6.087152 13.600158 13.596039m-1.700001-122.2148289H88.5304227c-.9393638 0-1.7003009-.7607066-1.7003009-1.6997859 0-.9383297.7609371-1.6990364 1.7003009-1.6990364h23.8004633c.938614 0 1.700301.7607067 1.700301 1.6990364 0 .9390793-.761687 1.6997859-1.700301 1.6997859" mask="url(#b)"/>
    <path fill="#738BD7" d="M107.230733 115.3597H93.6305756c-3.7559556 0-6.8004538-3.043576-6.8004538-6.798394V94.9652677c0-3.7540686 3.0444982-6.798394 6.8004538-6.798394h13.6001574c3.755956 0 6.800454 3.0443254 6.800454 6.798394v13.5960383c0 3.754818-3.044498 6.798394-6.800454 6.798394" mask="url(#b)"/>
    <path fill="#696F75" d="M254.738805 276.76561v16.514454c0 .827409.670975 1.49893 1.499384 1.49893H512.71373c.82841 0 1.499384-.671521 1.499384-1.49893V276.76561c0-.828158-.670974-1.498929-1.499384-1.498929H256.238189c-.828409 0-1.499384.670771-1.499384 1.498929m258.349771-50.438822H255.863343c-.620745 0-1.124538-.50364-1.124538-1.124197 0-.620557.503793-1.124197 1.124538-1.124197h257.225233c.620745 0 1.124538.50364 1.124538 1.124197 0 .620557-.503793 1.124197-1.124538 1.124197m0-122.137334H255.863343c-.620745 0-1.124538-.50364-1.124538-1.124197 0-.620557.503793-1.124197 1.124538-1.124197h257.225233c.620745 0 1.124538.50364 1.124538 1.124197 0 .620557-.503793 1.124197-1.124538 1.124197" mask="url(#b)"/>
    <path fill="#878B97" d="M348.374629 64.7006103h-58.934767c-1.242239 0-2.249075 1.006531-2.249075 2.248394v2.8202355c0 1.241863 1.006836 2.248394 2.249075 2.248394h58.934767c1.242239 0 2.249075-1.006531 2.249075-2.248394v-2.8202355c0-1.241863-1.006836-2.248394-2.249075-2.248394" mask="url(#b)"/>
    <path fill="#696F75" d="M357.129679 76.998576h-67.499245c-1.347197 0-2.439497 1.09197-2.439497 2.438758 0 1.3475375 1.0923 2.4395075 2.439497 2.4395075h67.499245c1.347196 0 2.439497-1.09197 2.439497-2.4395075 0-1.346788-1.092301-2.438758-2.439497-2.438758m23.584028 0h-13.825066c-1.347196 0-2.439497 1.09197-2.439497 2.438758 0 1.3475375 1.092301 2.4395075 2.439497 2.4395075h13.825066c1.347196 0 2.439496-1.09197 2.439496-2.4395075 0-1.346788-1.0923-2.438758-2.439496-2.438758m23.584102 0h-13.825065c-1.347196 0-2.439497 1.09197-2.439497 2.438758 0 1.3475375 1.092301 2.4395075 2.439497 2.4395075h13.825065c1.347196 0 2.439497-1.09197 2.439497-2.4395075 0-1.346788-1.092301-2.438758-2.439497-2.438758m-38.832383 9.7559315h-75.835067c-1.347196 0-2.439497 1.09197-2.439497 2.438758 0 1.3475375 1.092301 2.4395075 2.439497 2.4395075h75.835067c1.347196 0 2.439497-1.09197 2.439497-2.4395075 0-1.346788-1.092301-2.438758-2.439497-2.438758" mask="url(#b)"/>
    <path fill="#FAA61A" d="M277.916275 75.6760707c0 6.0616702-4.915729 10.9751606-10.978486 10.9751606-6.063506 0-10.979235-4.9134904-10.979235-10.9751606 0-6.0616703 4.915729-10.9751606 10.979235-10.9751606 6.062757 0 10.978486 4.9134903 10.978486 10.9751606" mask="url(#b)"/>
    <path fill="#878B97" d="M338.615667 113.58242h-49.17603c-1.242239 0-2.249075 1.006531-2.249075 2.248394v2.820235c0 1.241863 1.006836 2.248394 2.249075 2.248394h49.17603c1.242239 0 2.249075-1.006531 2.249075-2.248394v-2.820235c0-1.241863-1.006836-2.248394-2.249075-2.248394" mask="url(#b)"/>
    <path fill="#696F75" d="M327.852867 125.880385h-38.222284c-1.347945 0-2.440246 1.09197-2.440246 2.438758 0 1.347538 1.092301 2.439508 2.440246 2.439508h38.222284c1.347196 0 2.439497-1.09197 2.439497-2.439508 0-1.346788-1.092301-2.438758-2.439497-2.438758" mask="url(#b)"/>
    <path fill="#FAA61A" d="M277.916275 124.55788c0 6.06167-4.915729 10.975161-10.978486 10.975161-6.063506 0-10.979235-4.913491-10.979235-10.975161s4.915729-10.975161 10.979235-10.975161c6.062757 0 10.978486 4.913491 10.978486 10.975161" mask="url(#b)"/>
    <path fill="#878B97" d="M365.452757 235.772291h-76.012745c-1.242239 0-2.249075 1.006531-2.249075 2.248394v2.820236c0 1.241863 1.006836 2.248394 2.249075 2.248394h76.012745c1.242239 0 2.249075-1.006531 2.249075-2.248394v-2.820236c0-1.241863-1.006836-2.248394-2.249075-2.248394" mask="url(#b)"/>
    <path fill="#696F75" d="M332.732311 248.070257h-43.102027c-1.347196 0-2.439497 1.09197-2.439497 2.438758 0 1.347537 1.092301 2.439507 2.439497 2.439507h43.102027c1.347196 0 2.439497-1.09197 2.439497-2.439507 0-1.346788-1.092301-2.438758-2.439497-2.438758m13.011949 0h-3.252912c-1.347196 0-2.439497 1.09197-2.439497 2.438758 0 1.347537 1.092301 2.439507 2.439497 2.439507h3.252912c1.347196 0 2.439497-1.09197 2.439497-2.439507 0-1.346788-1.092301-2.438758-2.439497-2.438758m-55.91051 9.755931h-.203167c-1.347196 0-2.440246 1.09197-2.440246 2.438758 0 1.347538 1.09305 2.439508 2.440246 2.439508h.203167c1.347196 0 2.439497-1.09197 2.439497-2.439508 0-1.346788-1.092301-2.438758-2.439497-2.438758m36.799294 0h-27.040632c-1.347196 0-2.439497 1.09197-2.439497 2.438758 0 1.347538 1.092301 2.439508 2.439497 2.439508h27.040632c1.347196 0 2.439497-1.09197 2.439497-2.439508 0-1.346788-1.092301-2.438758-2.439497-2.438758m74.920069 0h-65.160957c-1.347946 0-2.440247 1.09197-2.440247 2.438758 0 1.347538 1.092301 2.439508 2.440247 2.439508h65.160957c1.347196 0 2.439497-1.09197 2.439497-2.439508 0-1.346788-1.092301-2.438758-2.439497-2.438758" mask="url(#b)"/>
    <path fill="#F6989D" d="M277.916275 246.747752c0 6.06167-4.915729 10.97516-10.978486 10.97516-6.063506 0-10.979235-4.91349-10.979235-10.97516 0-6.061671 4.915729-10.975161 10.979235-10.975161 6.062757 0 10.978486 4.91349 10.978486 10.975161" mask="url(#b)"/>
    <path fill="#878B97" d="M425.718601 135.53334H288.689945c-.827659 0-1.499383.670771-1.499383 1.49893v73.07955c0 .827409.671724 1.498929 1.499383 1.498929h137.028656c.82841 0 1.499384-.67152 1.499384-1.498929v-73.07955c0-.828159-.670974-1.49893-1.499384-1.49893m-52.003117-87.6193893H258.207479c-1.241489 0-2.249075-1.006531-2.249075-2.248394v-6.8336188c0-1.241863 1.007586-2.248394 2.249075-2.248394h115.508005c1.242239 0 2.249075 1.006531 2.249075 2.248394v6.8336188c0 1.241863-1.006836 2.248394-2.249075 2.248394m142.327777 0c-3.129963 0-5.66692-2.5361884-5.66692-5.6652034 0-3.1282655 2.536957-5.6652034 5.66692-5.6652034s5.66692 2.5369379 5.66692 5.6652034c0 3.129015-2.536957 5.6652034-5.66692 5.6652034m-16.827281 0c-3.129963 0-5.66692-2.5361884-5.66692-5.6652034 0-3.1282655 2.536957-5.6652034 5.66692-5.6652034s5.66692 2.5369379 5.66692 5.6652034c0 3.129015-2.536957 5.6652034-5.66692 5.6652034m-16.827356 0c-3.129963 0-5.666919-2.5361884-5.666919-5.6652034 0-3.1282655 2.536956-5.6652034 5.666919-5.6652034s5.66692 2.5369379 5.66692 5.6652034c0 3.129015-2.536957 5.6652034-5.66692 5.6652034" mask="url(#b)"/>
    <path fill="#D3D8E5" d="M316.861262 16.1427944c0 2.069272-1.67856 3.7473234-3.748459 3.7473234s-3.748459-1.6780514-3.748459-3.7473234c0-2.0692719 1.67856-3.7473233 3.748459-3.7473233s3.748459 1.6780514 3.748459 3.7473233" mask="url(#b)"/>
  </g>
</svg>