<svg xmlns="http://www.w3.org/2000/svg" width="90" height="90">
  <g fill="none" fill-rule="evenodd">
    <path fill="#FAA61A" d="M83.9046718 88.4474615H6.54393398c-2.50948544 0-4.54427184-2.0383846-4.54427184-4.5523077V6.39761538c0-2.51392307 2.0347864-4.55146153 4.54427184-4.55146153H83.9046718c2.5094855 0 4.5442719 2.03753846 4.5442719 4.55146153V83.8951538c0 2.5139231-2.0347864 4.5523077-4.5442719 4.5523077"/>
    <path stroke="#1A1C1E" stroke-width="3.38461538" d="M2 26.8418769V6.39795385c0-2.51392308 2.0347864-4.5523077 4.54427184-4.5523077H83.9050097c2.5094854 0 4.5434272 2.03838462 4.5434272 4.5523077V83.8954923c0 2.5139231-2.0339418 4.5523077-4.5434272 4.5523077H6.54427184C4.0347864 88.4478 2 86.4094154 2 83.8954923v-44.396" stroke-linecap="round" stroke-linejoin="round"/>
    <path fill="#191C1E" d="M13.3747854 9.82242308c0 1.88776922-1.52799025 3.41846152-3.41242715 3.41846152s-3.41242718-1.5306923-3.41242718-3.41846152c0-1.88776923 1.5279903-3.41846154 3.41242718-3.41846154 1.8844369 0 3.41242715 1.5306923 3.41242715 3.41846154m0 70.64860002c0 1.8877692-1.52799025 3.4184615-3.41242715 3.4184615s-3.41242718-1.5306923-3.41242718-3.4184615c0-1.8877693 1.5279903-3.4184616 3.41242718-3.4184616 1.8844369 0 3.41242715 1.5306923 3.41242715 3.4184616M83.8986748 9.82242308c0 1.88776922-1.5279903 3.41846152-3.4124272 3.41846152-1.8844369 0-3.4124272-1.5306923-3.4124272-3.41846152 0-1.88776923 1.5279903-3.41846154 3.4124272-3.41846154 1.8844369 0 3.4124272 1.5306923 3.4124272 3.41846154m0 70.64860002c0 1.8877692-1.5279903 3.4184615-3.4124272 3.4184615-1.8844369 0-3.4124272-1.5306923-3.4124272-3.4184615 0-1.8877693 1.5279903-3.4184616 3.4124272-3.4184616 1.8844369 0 3.4124272 1.5306923 3.4124272 3.4184616"/>
    <path fill="#E6EBF4" d="M27.3795893 25.0754462c-.5625437-.4763847-.656301-1.3293077-.1824466-1.8945385 4.8567961-5.8012308 10.790534-8.118 16.4159709-8.118 23.1073689 0 27.5485922 31.1071538 5.8222427 35.2473846-.5853495.1116923-1.044.572-1.1157961 1.1643077l-.5946408 4.8552308c-.0836213.6811538-.6605243 1.1930769-1.3455437 1.1930769h-7.9457184c-.7213398 0-1.3168253-.5669231-1.3539903-1.2886923l-.6199806-12.1287692c-.0439223-.8554616.7078253-1.5459231 1.5516408-1.4113847 1.6834078.269077 3.0466893.269077 3.7055243.269077 12.0710388 0 12.5009708-17.6211539-.2601554-16.4974616-2.3236602.2250769-4.6464757 1.2345385-6.517398 3.3101539-.4839903.5373077-1.310068.5872307-1.8624758.1201538l-5.697233-4.8205384zm22.182635 43.3307769c0 3.7687692-3.050068 6.8242307-6.8121845 6.8242307s-6.8121845-3.0554615-6.8121845-6.8242307c0-3.7687693 3.050068-6.8242308 6.8121845-6.8242308s6.8121845 3.0554615 6.8121845 6.8242308"/>
    <path stroke="#1A1C1E" stroke-width="3.38461538" d="M27.3795893 25.0754462c-.5625437-.4763847-.656301-1.3293077-.1824466-1.8945385 4.8567961-5.8012308 10.790534-8.118 16.4159709-8.118 23.1073689 0 27.5485922 31.1071538 5.8222427 35.2473846-.5853495.1116923-1.044.572-1.1157961 1.1643077l-.5946408 4.8552308c-.0836213.6811538-.6605243 1.1930769-1.3455437 1.1930769h-7.9457184c-.7213398 0-1.3168253-.5669231-1.3539903-1.2886923l-.6199806-12.1287692c-.0439223-.8554616.7078253-1.5459231 1.5516408-1.4113847 1.6834078.269077 3.0466893.269077 3.7055243.269077 12.0710388 0 12.5009708-17.6211539-.2601554-16.4974616-2.3236602.2250769-4.6464757 1.2345385-6.517398 3.3101539-.4839903.5373077-1.310068.5872307-1.8624758.1201538l-5.697233-4.8205384zm22.182635 43.3307769c0 3.7687692-3.050068 6.8242307-6.8121845 6.8242307s-6.8121845-3.0554615-6.8121845-6.8242307c0-3.7687693 3.050068-6.8242308 6.8121845-6.8242308s6.8121845 3.0554615 6.8121845 6.8242308z" stroke-linecap="round" stroke-linejoin="round"/>
  </g>
</svg>