<svg xmlns="http://www.w3.org/2000/svg" width="218" height="104" xmlns:xlink="http://www.w3.org/1999/xlink">
  <defs>
    <path id="a" d="M22.8201778 5.5761c2.0927101-1.63686766 3.8216451-3.3452404 5.1499919-5.112H.70502007v5.112H22.8201778z"/>
    <path id="c" d="M185.832058 31.3011C183.156254 13.9024073 142.716304.0885 93.2214082.0885 43.7257862.0885 3.28581152 13.9024073.6100067 31.3011H185.832058z"/>
    <path id="e" d="M1.36208163.55219402c-.33330296.2002319-.6608417.4018254-.98253478.60475153l.98253478.00000445V.55219402z"/>
    <path id="g" d="M.49544592 3.64158565C11.5353347 3.11111325 21.959148 1.88853193 31.4116592.10042622L.49544592.100425v3.54116065z"/>
    <path id="i" d="M.61359286.2064C16.614755 4.8829997 37.0848864 7.68975 59.3948776 7.68975c.7152857 0 1.4286802-.0028852 2.140097-.00862474L61.5349694.2064H.61359286z"/>
    <path id="k" d="M.61475525.4641c1.32834894 1.7667596 3.05728733 3.47513234 5.15000313 5.112H39.4161769V.4641H.61475525z"/>
    <path id="m" d="M51.8377299.0201752C31.3607353 1.52497928 13.350045 5.43481157.23422993 10.8843489v5.2731261H51.8377299V.0201752z"/>
    <path id="o" d="M28.7266504 5.801325c-.2680941-1.74342457-.9153745-3.4508552-1.9129558-5.112H.73140476v5.112H28.7266504z"/>
  </defs>
  <g fill="none" fill-rule="evenodd">
    <path fill="#D3D8E5" d="M215.270926 55.031375c0 31.791-54.948568 46.27125-106.001823 46.27125-51.0540072 0-106.00257525-14.48025-106.00257525-46.27125v-7.22025H215.270926v7.22025z"/>
    <path stroke="#1A1C1E" stroke-width="3" d="M215.270926 55.031375c0 31.791-54.948568 46.27125-106.001823 46.27125-51.0540072 0-106.00257525-14.48025-106.00257525-46.27125v-7.22025H215.270926v7.22025z" stroke-linecap="round" stroke-linejoin="round"/>
    <path fill="#E6EBF4" d="M109.268802 94.832075c-51.0540069 0-106.00182323-14.48025-106.00182323-46.27125 0-31.79025 54.94781633-46.2705 106.00182323-46.2705 51.054007 0 106.001823 14.48025 106.001823 46.2705 0 31.791-54.947816 46.27125-106.001823 46.27125"/>
    <path fill="#99A6AD" d="M202.020698 45.917c0 18.2535-41.526201 33.051-92.751595 33.051-51.225395 0-92.7523474-14.7975-92.7523474-33.051 0-18.2535 41.5269524-33.051 92.7523474-33.051 51.225394 0 92.751595 14.7975 92.751595 33.051"/>
    <path fill="#7C878C" d="M67.7415486 57.04835c0 1.413 1.1455919 2.556 2.561796 2.556H160.08046c1.416204 0 2.561796-1.143 2.561796-2.556s-1.145592-2.556-2.561796-2.556H70.3033446c-1.4162041 0-2.561796 1.143-2.561796 2.556"/>
    <g transform="translate(170.898 54.028)">
      <mask id="b" fill="#fff">
        <use xlink:href="#a"/>
      </mask>
      <path fill="#7C878C" d="M.70502007 3.0201c0 1.413 1.14559183 2.556 2.56179592 2.556h37.7038027c1.4162041 0 2.5617959-1.143 2.5617959-2.556S42.3868228.4641 40.9706187.4641H3.266816c-1.4162041 0-2.56179593 1.143-2.56179593 2.556" mask="url(#b)"/>
    </g>
    <g transform="translate(16.048 12.778)">
      <mask id="d" fill="#fff">
        <use xlink:href="#c"/>
      </mask>
      <path fill="#7C878C" d="M155.627974 2.5131c-5.209285 2.49675-10.03821 5.82675-14.246983 10.02375-8.820455 8.80275-20.553 13.653-33.035741 13.653H79.5039983c5.2183061-2.49975 10.0539966-5.83575 14.2665272-10.03875 8.8159455-8.79375 20.5387175-13.638 33.0064255-13.638h28.851023zM57.1123384 26.18985H-18.486199c-1.4154524 0-2.5610442 1.143-2.5610442 2.55525 0 1.413 1.1455918 2.556 2.5610442 2.556H108.34525c13.848582 0 26.867286-5.38125 36.658187-15.15 8.815946-8.79375 20.538718-13.638 33.006425-13.638h17.811548c1.415452 0 2.561796-1.143 2.561796-2.556 0-1.41225-1.146344-2.556-2.561796-2.556h-69.044459c-13.833548 0-26.8424799 5.37675-36.6281194 15.13575-8.8212075 8.80275-20.5537517 13.653-33.0364932 13.653z" mask="url(#d)"/>
    </g>
    <g transform="translate(28.075 28.528)">
      <mask id="f" fill="#fff">
        <use xlink:href="#e"/>
      </mask>
      <path fill="#7C878C" d="M-33.0748299-26.1933c0 1.413 1.1455918 2.556 2.5617959 2.556h16.8907143c5.4385544 0 9.8615612 4.41525 9.8615612 9.8415s-4.4230068 9.8415-9.8615612 9.8415H-30.513034c-1.4162041 0-2.5617959 1.143-2.5617959 2.55525 0 1.413 1.1455918 2.556 2.5617959 2.556h16.8907143c8.26043875 0 14.98440133-6.70875 14.98440133-14.95275S-5.36188095-28.7493-13.6223197-28.7493H-30.513034c-1.4162041 0-2.5617959 1.143-2.5617959 2.556" mask="url(#f)"/>
    </g>
    <g transform="translate(121.286 75.028)">
      <mask id="h" fill="#fff">
        <use xlink:href="#g"/>
      </mask>
      <path fill="#7C878C" d="M.49544592 17.567175c0 9.62925 7.8552721 17.46375 17.50635718 17.46375 1.4154523 0 2.5617959-1.143 2.5617959-2.55525 0-1.413-1.1463436-2.556-2.5617959-2.556-6.8292007 0-12.38276534-5.541-12.38276534-12.3525 0-6.8115 5.55356464-12.35475 12.38276534-12.35475h11.1018673c1.4162041 0 2.5617959-1.143 2.5617959-2.556s-1.1455918-2.556-2.5617959-2.556H18.0018031c-9.65108507 0-17.50635718 7.83525-17.50635718 17.46675" mask="url(#h)"/>
    </g>
    <g transform="translate(49.874 71.278)">
      <mask id="j" fill="#fff">
        <use xlink:href="#i"/>
      </mask>
      <path fill="#7C878C" d="M-54.8741497 2.7624c0 1.413 1.1455919 2.556 2.561796 2.556H42.607898c7.6102176 0 13.8042313 6.177 13.8042313 13.77225S50.2181156 32.8659 42.607898 32.8659h-85.3841769c-1.4162041 0-2.5617959 1.143-2.5617959 2.556 0 1.41225 1.1455918 2.556 2.5617959 2.556H42.607898c10.4373639 0 18.9270714-8.47425 18.9270714-18.88725 0-10.413-8.4897075-18.88425-18.9270714-18.88425h-94.9202517c-1.4162041 0-2.561796 1.143-2.561796 2.556" mask="url(#j)"/>
    </g>
    <g transform="translate(19.054 54.028)">
      <mask id="l" fill="#fff">
        <use xlink:href="#k"/>
      </mask>
      <path fill="#7C878C" d="M-24.0544218 3.0201c0 1.413 1.1455919 2.556 2.5617959 2.556H36.854381c1.416204 0 2.5617959-1.143 2.5617959-2.556S38.270585.4641 36.854381.4641h-58.3470069c-1.416204 0-2.5617959 1.143-2.5617959 2.556" mask="url(#l)"/>
    </g>
    <g transform="translate(38.6 13.528)">
      <mask id="n" fill="#fff">
        <use xlink:href="#m"/>
      </mask>
      <path fill="#7C878C" d="M46.7141381 1.203975c0 5.42625-4.4230068 9.8415-9.8615612 9.8415h-.14583c2.3310238-2.637 3.7930817-6.05775 3.7930817-9.8415 0-3.78375-1.4620579-7.2045-3.7930817-9.8415h.14583c5.4385544 0 9.8615612 4.41525 9.8615612 9.8415m-20.678534-9.78825c5.1904932.279 9.3413843 4.54125 9.3413843 9.78825s-4.1508911 9.50925-9.3413843 9.78825c-5.1897415-.279-9.3406327-4.54125-9.3406327-9.78825s4.1508912-9.50925 9.3406327-9.78825M5.35782177 1.203975c0-5.42625 4.4230068-9.8415 9.86080953-9.8415h.1465816c-2.3310238 2.637-3.7938333 6.05775-3.7938333 9.8415 0 3.78375 1.4628095 7.2045 3.7938333 9.8415h-.1465816c-5.43780273 0-9.86080953-4.41525-9.86080953-9.8415m-5.12359184 0c0 8.244 6.7247143 14.9535 14.98440137 14.9535H25.510917c.1796565 0 .346534-.04725.5246871-.05325.1789047.006.3457823.05325.5254388.05325h10.291534c8.2604387 0 14.985153-6.7095 14.985153-14.9535s-6.7247143-14.9535-14.985153-14.9535h-10.291534c-.1796565 0-.3465341.04725-.5254388.05325-.1781531-.006-.3450306-.05325-.5246871-.05325H15.2186313c-8.25968708 0-14.98440137 6.7095-14.98440137 14.9535" mask="url(#n)"/>
    </g>
    <g transform="translate(173.153 38.278)">
      <mask id="p" fill="#fff">
        <use xlink:href="#o"/>
      </mask>
      <path fill="#7C878C" d="M.73140476 3.245325c0 1.413 1.14559184 2.556 2.56179592 2.556H38.7155918c1.4162041 0 2.561796-1.143 2.561796-2.556s-1.1455919-2.556-2.561796-2.556H3.29320068c-1.41620408 0-2.56179592 1.143-2.56179592 2.556" mask="url(#p)"/>
    </g>
    <path stroke="#1A1C1E" stroke-width="3" d="M181.249178 83.680475c-2.112278.7935-4.293714 1.5435-6.53754 2.25M53.004908 8.6195c17.2049252-4.2705 37.0114864-6.32925 56.264044-6.32925 51.053255 0 106.001823 14.48025 106.001823 46.2705 0 13.4355-9.814204 23.7795-25.000813 31.245m-40.547411 11.9004c-13.022462 2.1015-26.875554 3.126-40.453524 3.126-51.0540064 0-106.00257442-14.48025-106.00257442-46.27125 0-15.84675 13.65389112-27.39225 33.67243202-34.9875" stroke-linecap="round" stroke-linejoin="round"/>
    <path fill="#7C878C" d="M109.268877 23.4425c46.172463 0 84.449813 12.024 91.55564 27.76275.777258-1.72275 1.195955-3.4875 1.195955-5.28825 0-18.2535-41.5262-33.051-92.751595-33.051-51.2253945 0-92.7515952 14.7975-92.7515952 33.051 0 1.80075.4186973 3.5655 1.1959558 5.28825C24.8190641 35.4665 63.0964145 23.4425 109.268877 23.4425"/>
    <path stroke="#1A1C1E" stroke-width="3" d="M202.020698 45.917c0 18.2535-41.526201 33.051-92.751595 33.051-51.225395 0-92.7523474-14.7975-92.7523474-33.051 0-18.2535 41.5269524-33.051 92.7523474-33.051 51.225394 0 92.751595 14.7975 92.751595 33.051z" stroke-linecap="round" stroke-linejoin="round"/>
    <path fill="#D3D8E5" d="M134.547368 44.594975c0 7.581-13.103646 11.034-25.278942 11.034-12.1745442 0-25.2781904-3.453-25.2781904-11.034v-4.62675h50.5571324v4.62675z"/>
    <path stroke="#1A1C1E" stroke-width="3" d="M134.547368 44.594975c0 7.581-13.103646 11.034-25.278942 11.034-12.1745442 0-25.2781904-3.453-25.2781904-11.034v-4.62675l50.5571324-2.9805v7.60725z" stroke-linecap="round" stroke-linejoin="round"/>
    <path fill="#E6EBF4" d="M109.268802 47.697125c-12.1745443 0-25.2789423-3.453-25.2789423-11.034 0-7.58175 13.104398-11.03475 25.2789423-11.03475 12.174544 0 25.278942 3.453 25.278942 11.03475 0 7.581-13.104398 11.034-25.278942 11.034"/>
    <path stroke="#1A1C1E" stroke-width="3" d="M90.7362982 44.479775c-4.0644456-1.80225-6.7465136-4.3875-6.7465136-7.81725 0-7.581 13.1043979-11.034 25.2789424-11.034 12.174544 0 25.278942 3.453 25.278942 11.034 0 7.58175-13.104398 11.03475-25.278942 11.03475-1.439507 0-2.891793-.04875-4.334306-.14625" stroke-linecap="round" stroke-linejoin="round"/>
  </g>
</svg>