<svg xmlns="http://www.w3.org/2000/svg" width="135" height="256" xmlns:xlink="http://www.w3.org/1999/xlink">
  <defs>
    <path id="a" d="M0 256h135V0H0z"/>
  </defs>
  <g fill="none" fill-rule="evenodd">
    <path fill="#E6EBF4" d="M126 254.498534H9c-4.14225 0-7.5-3.361033-7.5-7.507332V9.00879765c0-4.14629912 3.35775-7.50733137 7.5-7.50733137h117c4.14225 0 7.5 3.36103225 7.5 7.50733137V246.991202c0 4.146299-3.35775 7.507332-7.5 7.507332z"/>
    <path stroke="#1A1C1E" stroke-width="3" d="M107.208 1.50146628H126c4.14225 0 7.5 3.36103225 7.5 7.50733137V246.991202c0 4.146299-3.35775 7.507332-7.5 7.507332H9c-4.14225 0-7.5-3.361033-7.5-7.507332V9.00879765c0-4.14629912 3.35775-7.50733137 7.5-7.50733137h86.6415" stroke-linecap="round" stroke-linejoin="round"/>
    <mask id="b" fill="#fff">
      <use xlink:href="#a"/>
    </mask>
    <path fill="#36393E" d="M7.5 227.438358h120V26.99261H7.5" mask="url(#b)"/>
    <path fill="#2C2F36" d="M7.5 51.8373724h120V26.99261H7.5m0 200.368422h120v-17.528868H7.5" mask="url(#b)"/>
    <path fill="#878B97" d="M25.35645 36.9680516h-9.75c-.621 0-1.125-.5044927-1.125-1.1260997 0-.621607.504-1.1260997 1.125-1.1260997h9.75c.621 0 1.125.5044927 1.125 1.1260997 0 .621607-.504 1.1260997-1.125 1.1260997m0 3.7536657h-9.75c-.621 0-1.125-.5044927-1.125-1.1260997 0-.621607.504-1.1260997 1.125-1.1260997h9.75c.621 0 1.125.5044927 1.125 1.1260997 0 .621607-.504 1.1260997-1.125 1.1260997m0 3.7536657h-9.75c-.621 0-1.125-.5044927-1.125-1.1260997 0-.6216071.504-1.1260997 1.125-1.1260997h9.75c.621 0 1.125.5044926 1.125 1.1260997 0 .621607-.504 1.1260997-1.125 1.1260997m52.130025-1.6467331h-13.5c-.82875 0-1.5-.6719062-1.5-1.5014663v-4.5043988c0-.8295602.67125-1.5014663 1.5-1.5014663h13.5c.82875 0 1.5.6719061 1.5 1.5014663v4.5043988c0 .8295601-.67125 1.5014663-1.5 1.5014663m-20.25 0h-20.25c-.82875 0-1.5-.6719062-1.5-1.5014663v-4.5043988c0-.8295602.67125-1.5014663 1.5-1.5014663h20.25c.82875 0 1.5.6719061 1.5 1.5014663v4.5043988c0 .8295601-.67125 1.5014663-1.5 1.5014663" mask="url(#b)"/>
    <path fill="#D3D8E5" d="M32.0661 14.6392962c0 1.0367625-.83925 1.8768328-1.875 1.8768328s-1.875-.8400703-1.875-1.8768328.83925-1.8768329 1.875-1.8768329 1.875.8400704 1.875 1.8768329M89.25 16.1407625h-43.5c-.82875 0-1.5-.6719062-1.5-1.5014663 0-.8295601.67125-1.5014663 1.5-1.5014663h43.5c.82875 0 1.5.6719062 1.5 1.5014663 0 .8295601-.67125 1.5014663-1.5 1.5014663m0 226.7214075h-43.5c-.82875 0-1.5-.671906-1.5-1.501466s.67125-1.501466 1.5-1.501466h43.5c.82875 0 1.5.671906 1.5 1.501466s-.67125 1.501466-1.5 1.501466" mask="url(#b)"/>
    <path stroke="#1A1C1E" stroke-width="3" d="M7.5 227.438358h120V26.99261H7.5z" stroke-linecap="round" stroke-linejoin="round" mask="url(#b)"/>
    <path fill="#878B97" d="M63.232725 76.8442182h-30.684c-.64725 0-1.1715.5247624-1.1715 1.1718944v1.4706862c0 .647132.52425 1.1718945 1.1715 1.1718945h30.684c.6465 0 1.17075-.5247625 1.17075-1.1718945v-1.4706862c0-.647132-.52425-1.1718944-1.17075-1.1718944" mask="url(#b)"/>
    <path fill="#696F75" d="M67.791075 83.255329h-35.1435c-.70125 0-1.26975.5690558-1.26975 1.271742 0 .7019355.5685 1.2709912 1.26975 1.2709912h35.1435c.70125 0 1.2705-.5690557 1.2705-1.2709912 0-.7026862-.56925-1.271742-1.2705-1.271742m12.279 0h-7.19775c-.702 0-1.2705.5690558-1.2705 1.271742 0 .7019355.5685 1.2709912 1.2705 1.2709912h7.19775c.70125 0 1.2705-.5690557 1.2705-1.2709912 0-.7026862-.56925-1.271742-1.2705-1.271742m7.06095 5.0859167h-54.483c-.702 0-1.2705.5690558-1.2705 1.271742 0 .7019355.5685 1.2709912 1.2705 1.2709912h54.483c.70125 0 1.2705-.5690557 1.2705-1.2709912 0-.7026862-.56925-1.271742-1.2705-1.271742m-26.25 5.0859168h-28.233c-.702 0-1.2705.5690557-1.2705 1.2717419 0 .7019355.5685 1.2709912 1.2705 1.2709912h28.233c.70125 0 1.2705-.5690557 1.2705-1.2709912 0-.7026862-.56925-1.2717419-1.2705-1.2717419" mask="url(#b)"/>
    <path fill="#FAA61A" d="M26.548725 82.5658557c0 3.1598358-2.559 5.7213373-5.71575 5.7213373-3.1575 0-5.7165-2.5615015-5.7165-5.7213373s2.559-5.7213372 5.7165-5.7213372c3.15675 0 5.71575 2.5615014 5.71575 5.7213372" mask="url(#b)"/>
    <path fill="#878B97" d="M58.151775 103.828495h-25.6035c-.6465 0-1.17075.524762-1.17075 1.171894v1.470687c0 .647132.52425 1.171894 1.17075 1.171894h25.6035c.6465 0 1.17075-.524762 1.17075-1.171894v-1.470687c0-.647132-.52425-1.171894-1.17075-1.171894" mask="url(#b)"/>
    <path fill="#696F75" d="M52.54815 110.239606h-19.9005c-.70125 0-1.2705.569056-1.2705 1.271742 0 .701935.56925 1.270991 1.2705 1.270991h19.9005c.70125 0 1.2705-.569056 1.2705-1.270991 0-.702686-.56925-1.271742-1.2705-1.271742" mask="url(#b)"/>
    <path fill="#F6989D" d="M26.548725 109.550133c0 3.159835-2.559 5.721337-5.71575 5.721337-3.1575 0-5.7165-2.561502-5.7165-5.721337 0-3.159836 2.559-5.721338 5.7165-5.721338 3.15675 0 5.71575 2.561502 5.71575 5.721338" mask="url(#b)"/>
    <path fill="#878B97" d="M58.151775 185.494372h-25.6035c-.6465 0-1.17075.524762-1.17075 1.171894v1.470686c0 .647132.52425 1.171895 1.17075 1.171895h25.6035c.6465 0 1.17075-.524763 1.17075-1.171895v-1.470686c0-.647132-.52425-1.171894-1.17075-1.171894" mask="url(#b)"/>
    <path fill="#696F75" d="M38.29815 191.905483h-5.6505c-.70125 0-1.2705.569055-1.2705 1.271742 0 .701935.56925 1.270991 1.2705 1.270991h5.6505c.70125 0 1.2705-.569056 1.2705-1.270991 0-.702687-.56925-1.271742-1.2705-1.271742" mask="url(#b)"/>
    <path fill="#FAA61A" d="M26.548725 191.216009c0 3.159836-2.559 5.721338-5.71575 5.721338-3.1575 0-5.7165-2.561502-5.7165-5.721338 0-3.159835 2.559-5.721337 5.7165-5.721337 3.15675 0 5.71575 2.561502 5.71575 5.721337" mask="url(#b)"/>
    <path fill="#878B97" d="M72.124425 163.774236h-39.576c-.6465 0-1.17075.524762-1.17075 1.171894v1.470686c0 .647132.52425 1.171895 1.17075 1.171895h39.576c.6465 0 1.17075-.524763 1.17075-1.171895v-1.470686c0-.647132-.52425-1.171894-1.17075-1.171894" mask="url(#b)"/>
    <path fill="#696F75" d="M55.088625 170.185347h-22.44075c-.702 0-1.2705.569055-1.2705 1.271742 0 .701935.5685 1.270991 1.2705 1.270991h22.44075c.70125 0 1.2705-.569056 1.2705-1.270991 0-.702687-.56925-1.271742-1.2705-1.271742m-22.335075 5.085916h-.10575c-.702 0-1.2705.569056-1.2705 1.271742 0 .701936.5685 1.270991 1.2705 1.270991h.10575c.70125 0 1.2705-.569055 1.2705-1.270991 0-.702686-.56925-1.271742-1.2705-1.271742" mask="url(#b)"/>
    <path fill="#5AC8FA" d="M26.548725 169.495873c0 3.159836-2.559 5.721338-5.71575 5.721338-3.1575 0-5.7165-2.561502-5.7165-5.721338 0-3.159835 2.559-5.721337 5.7165-5.721337 3.15675 0 5.71575 2.561502 5.71575 5.721337" mask="url(#b)"/>
    <path fill="#878B97" d="M111.001725 115.271845h-78.84375c-.43125 0-.78075.349842-.78075.781513v38.097455c0 .431671.3495.781513.78075.781513h78.84375c.43125 0 .78075-.349842.78075-.781513v-38.097455c0-.431671-.3495-.781513-.78075-.781513M104.2824 51.7102733H31.37715v14.8555073c0 .4316716.3495.7815132.78075.7815132h71.34375c.43125 0 .78075-.3498416.78075-.7815132V51.7102733z" mask="url(#b)"/>
  </g>
</svg>