<svg xmlns="http://www.w3.org/2000/svg" width="24" height="24" viewBox="0 0 24 24">
  <g fill="none" fill-rule="evenodd">
    <rect width="24" height="24"/>
    <path fill="#FFFFFF" d="M1,0 C0.44771525,0 0,0.44771525 0,1 C-4.4408921e-16,10.3888407 7.61115925,18 17,18 C17.2652165,18 17.5195704,17.8946432 17.7071068,17.7071068 C17.8946432,17.5195704 18,17.2652165 18,17 L18,13.5 C18,12.9477153 17.5522847,12.5 17,12.5 C15.76,12.5 14.55,12.3 13.43,11.93 C13.08,11.82 12.69,11.9 12.41,12.18 L10.21,14.38 C7.38,12.94 5.07,10.62 3.62,7.79 L5.82,5.58 C6.1,5.31 6.18,4.92 6.07,4.57 C5.7,3.45 5.5,2.24 5.5,1 C5.5,0.44771525 5.05228475,0 4.5,0 M16.1213203,0.464466094 L14,2.58578644 L11.8786797,0.464466094 L10.4644661,1.87867966 L12.5857864,4 L10.4644661,6.12132034 L11.8786797,7.53553391 L14,5.41421356 L16.1213203,7.53553391 L17.5355339,6.12132034 L15.4142136,4 L17.5355339,1.87867966" transform="matrix(1 0 0 -1 3 21)"/>
  </g>
</svg>
