<?xml version="1.0" encoding="UTF-8" standalone="no"?>
<svg width="16px" height="12px" viewBox="0 0 16 12" version="1.1" xmlns="http://www.w3.org/2000/svg" xmlns:xlink="http://www.w3.org/1999/xlink" xmlns:sketch="http://www.bohemiancoding.com/sketch/ns">
    <!-- Generator: Sketch 3.3.3 (12081) - http://www.bohemiancoding.com/sketch -->
    <title>icon-twitter-status</title>
    <desc>Created with Sketch.</desc>
    <defs></defs>
    <g id="Welcome" stroke="none" stroke-width="1" fill="none" fill-rule="evenodd" sketch:type="MSPage">
        <g id="Desktop-HD---Compact" sketch:type="MSArtboardGroup" transform="translate(-614.000000, -949.000000)" fill="#FFFFFF">
            <g id="Group" sketch:type="MSLayerGroup" transform="translate(613.000000, 882.000000)">
                <path d="M17,68.4205367 C16.4113025,68.6614786 15.7786532,68.824321 15.1146348,68.8975596 C15.7924065,68.522617 16.3128644,67.9289309 16.5579648,67.2215521 C15.9237353,67.5686792 15.2212078,67.8208013 14.4734994,67.9566924 C13.8746772,67.3679212 13.0215663,67 12.0774498,67 C10.2645378,67 8.79475475,68.3563719 8.79475475,70.0293548 C8.79475475,70.2667861 8.8238414,70.4980061 8.87979078,70.7197202 C6.15161491,70.5933891 3.73285782,69.3873291 2.11383738,67.5545284 C1.83128132,68.0019534 1.66940268,68.5223469 1.66940268,69.0775234 C1.66940268,70.1285186 2.24897034,71.0557751 3.12976334,71.5990152 C2.591631,71.5832981 2.08551154,71.447029 1.64289111,71.2201298 C1.64265701,71.2327683 1.64265701,71.2454608 1.64265701,71.2582074 C1.64265701,72.7260035 2.77416877,73.9504271 4.27584769,74.2286905 C4.00037309,74.2979323 3.71038443,74.3349297 3.41097333,74.3349297 C3.19946596,74.3349297 2.99381104,74.3159719 2.79342331,74.2805948 C3.21111233,75.4841703 4.42338783,76.3600086 5.85981199,76.3844755 C4.7363766,77.1969592 3.32096273,77.6812736 1.78305717,77.6812736 C1.51811698,77.6812736 1.2568053,77.6669607 1,77.6389832 C2.45269395,78.4985102 4.17817038,79 6.0319324,79 C12.0697831,79 15.3714986,74.3838634 15.3714986,70.3806407 C15.3714986,70.2492866 15.3683383,70.1186346 15.3620176,69.9887388 C16.0033286,69.5616218 16.5598961,69.0280496 17,68.4205367" id="icon-twitter-status" sketch:type="MSShapeGroup"></path>
            </g>
        </g>
    </g>
</svg>