<svg xmlns="http://www.w3.org/2000/svg" width="16" height="16" viewBox="0 0 16 16">
  <g fill="none" fill-rule="evenodd">
    <path fill="#FFFFFF" d="M2,6 L2,10 L4.66666667,10 L8,13.3333333 L8,2.66666667 L4.66666667,6 L2,6 Z M11,8 C11,6.82 10.32,5.80666667 9.33333333,5.31333333 L9.33333333,10.68 C10.32,10.1933333 11,9.18 11,8 Z M9.33333333,2.15333333 L9.33333333,3.52666667 C11.26,4.1 12.6666667,5.88666667 12.6666667,8 C12.6666667,10.1133333 11.26,11.9 9.33333333,12.4733333 L9.33333333,13.8466667 C12.0066667,13.24 14,10.8533333 14,8 C14,5.14666667 12.0066667,2.76 9.33333333,2.15333333 L9.33333333,2.15333333 Z"/>
    <polygon points="0 0 16 0 16 16 0 16"/>
  </g>
</svg>
