<svg xmlns="http://www.w3.org/2000/svg" width="24" height="24">
  <g fill="none" fill-rule="evenodd">
    <path fill="#FFF" d="M10 12c2.21 0 4-1.79 4-4s-1.79-4-4-4-4 1.79-4 4 1.79 4 4 4zm0 2c-2.67 0-8 1.34-8 4v2h16v-2c0-2.66-5.33-4-8-4zm9.3073999-3.5066333l1.6724326-1.67243255c.124596-.12459606.39675-.3967501-.0040202-.79752037-.4007703-.40077028-.6769006-.1325925-.8014967-.00799643l-1.6724325 1.67243252-1.636821-1.636821c-.1236964-.12369646-.4297191-.42971917-.8344657-.02497265-.4047465.40474653-.0995039.7115494.0241925.83524585l1.636821 1.63682103-1.6258273 1.6258273c-.1236965.1236965-.4385989.4465514-.0378286.8473217.4007703.4007702.6792282.1223123.8029247-.0013842l1.666248-1.666248 1.6540174 1.6540173c.1241462.1241463.4199216.4183614.8246682.0136149.4047465-.4047466.1097512-.6997418-.014395-.8238881l-1.6540174-1.6540173z"/>
    <path d="M0 0h24v24H0"/>
  </g>
</svg>